<svg width="2534" height="615" viewBox="0 0 2534 615" fill="none" xmlns="http://www.w3.org/2000/svg">
<path d="M937.165 131.397L936.048 129.022L933.441 129.393C911.544 132.733 873.931 131.991 850.172 129.393L847.639 129.096L846.597 131.397C800.046 233.68 738.078 368.324 672.014 502.894L669.556 507.942H734.503L774.648 418.055C844.884 417.09 941.038 417.09 1010.38 418.055L1012.24 422.434C1022.67 447.448 1033.47 473.278 1047.77 505.863L1048.66 507.942H1115.62L1113.16 502.894C1056.86 388.068 999.207 266.561 937.165 131.323V131.397ZM992.951 377.305C932.771 378.196 853.821 378.196 792.747 377.305C828.796 296.548 861.12 224.698 890.466 166.729C949.603 281.258 975.821 337.966 993.026 377.305H992.951Z" fill="white"/>
<path d="M1160.84 110.171H1157.19L1157.34 113.808C1161.81 222.029 1160.54 400.837 1156.82 504.381L1156.67 508.018H1214.25L1214.1 504.381C1210.07 383.691 1209.48 207.852 1216.03 105.347L1216.41 100.077L1211.42 101.784C1195.4 107.351 1178.42 110.171 1160.84 110.171Z" fill="white"/>
<path d="M1435.2 469.121C1391.41 467.414 1369.59 440.916 1370.41 390.368L1370.55 381.09C1371 344.868 1371.45 307.459 1372.27 269.085C1420.98 269.085 1469.99 270.198 1514.3 272.128L1518.25 272.276L1517.95 268.342C1516.98 255.873 1516.98 247.485 1517.95 235.015L1518.25 231.081L1514.3 231.23C1470.28 233.16 1421.28 234.199 1372.42 234.273L1373.91 133.401L1368.92 135.554C1354.76 141.789 1339.57 143.793 1319.68 145.871L1316.33 146.242L1316.56 149.582C1317.9 170.959 1318.86 199.907 1319.39 233.679C1295.48 233.16 1271.35 232.121 1250.57 231.23L1246.47 231.081L1246.92 235.09C1247.88 243.922 1247.88 259.361 1246.92 268.194L1246.47 272.202L1250.57 272.054C1270.53 271.163 1295.18 270.124 1319.98 269.604C1320.88 331.434 1320.88 390.74 1320.88 410.484C1320.88 493.541 1376.96 512.024 1423.96 512.914C1425 512.914 1425.97 512.914 1427.01 512.914C1454.79 512.914 1486.74 506.976 1515.2 496.51L1517.88 495.545L1517.43 492.725C1515.72 481.814 1515.87 469.418 1517.95 455.909L1518.92 449.749L1513.18 452.124C1485.03 463.851 1457.32 469.864 1435.35 469.047L1435.2 469.121Z" fill="white"/>
<path d="M1624.04 230.636L1619.79 231.379C1601.47 234.496 1587.39 233.68 1570.56 231.379L1566.47 230.785L1566.61 234.942C1569.97 325.793 1569.97 413.898 1566.61 504.305L1566.47 507.942H1624.04L1623.89 504.305C1620.46 412.414 1620.46 326.832 1623.89 234.942L1624.04 230.636Z" fill="white"/>
<path d="M1594.21 126.794C1568.81 126.794 1555.85 136.666 1555.85 156.038C1555.85 175.411 1568.74 184.764 1594.21 184.764C1622.29 184.764 1635.92 175.337 1635.92 156.038C1635.92 136.74 1621.92 126.794 1594.21 126.794Z" fill="white"/>
<path d="M1930 231.379L1927.32 231.007L1926.28 233.457C1912.57 265.225 1899.24 297.29 1885.16 331.211C1866.32 376.563 1846.96 423.473 1825.95 470.68C1806.44 427.333 1787.45 381.536 1769.05 337.223C1754 300.927 1739.78 266.635 1725.18 233.457L1724.06 230.933L1721.31 231.453C1706.56 234.199 1689.21 234.199 1668.2 231.453L1661.65 230.562L1664.63 236.426C1706.19 319.038 1745.96 404.694 1789.83 505.863L1790.72 507.941H1859.62L1860.51 505.863C1871.61 481.295 1881.51 459.175 1890.68 438.615C1923.67 364.687 1947.58 311.319 1985.71 236.426L1988.84 230.339L1982.06 231.379C1964.71 234.125 1948.17 234.125 1929.93 231.379H1930Z" fill="white"/>
<path d="M2302.56 349.399C2301.59 262.036 2258.16 224.775 2157.32 224.775C2104.88 224.775 2056.47 236.651 2013.42 260.032L2011.26 261.22L2011.63 263.669C2013.5 274.951 2013.5 295.66 2011.63 307.982L2010.14 317.779L2017.52 311.025C2047.16 283.858 2097.96 267.009 2150.09 267.009C2230.31 267.009 2247.89 297.887 2250.42 354.966H2151.06C2030.25 354.966 2004.86 399.946 2004.86 437.727C2004.86 486.048 2043.59 514.921 2108.46 514.921C2173.33 514.921 2218.47 492.802 2252.8 447.451C2254.89 467.788 2259.06 487.31 2265.24 505.495L2266.06 507.87H2321.18L2319.76 503.342C2304.12 452.795 2303 411.897 2302.48 349.325L2302.56 349.399ZM2250.94 426.816C2228.67 448.49 2190.09 473.726 2131.62 473.726C2105.63 473.726 2062.06 467.788 2062.06 428.226C2062.06 393.489 2098.78 378.718 2184.8 378.718H2250.49V380.277C2250.49 383.691 2250.49 387.18 2250.49 390.817C2250.42 401.654 2250.34 413.901 2250.94 426.816Z" fill="white"/>
<path d="M2433.94 100L2428.95 101.707C2412.93 107.274 2395.95 110.095 2378.37 110.095H2374.73L2374.87 113.732C2379.34 221.952 2378.08 400.76 2374.35 504.304L2374.2 507.941H2431.78L2431.63 504.304C2427.61 383.614 2427.01 207.775 2433.57 105.27L2433.94 100Z" fill="white"/>
<path d="M477.915 129.908H100V206.731C151.764 174.294 212.391 154.699 277.562 152.621L100 506.526H177.907L274.732 209.032C279.2 207.473 283.967 206.582 288.957 206.582C293.947 206.582 298.714 207.473 303.183 209.032L400.008 506.526H477.915L300.353 152.621C365.523 154.699 426.151 174.22 477.915 206.731V129.908Z" fill="white"/>
</svg>
