<svg width="1082" height="340" viewBox="0 0 1082 340" fill="none" xmlns="http://www.w3.org/2000/svg">
<mask id="mask0_1_182" style="mask-type:alpha" maskUnits="userSpaceOnUse" x="0" y="0" width="1082" height="340">
<rect width="1082" height="340" fill="#D9D9D9"/>
</mask>
<g mask="url(#mask0_1_182)">
<mask id="path-2-inside-1_1_182" fill="white">
<path d="M1055.18 250.356L1052.83 251.296C1052.32 251.496 1050.9 249.476 1050.79 248.846C1050.3 245.896 1047.14 243.456 1044.77 241.286L1025.99 224.076C1025.5 222.906 1024.6 219.856 1023.73 218.936C1011.42 205.876 1009.26 208.746 995.96 191.906C991.12 185.776 983.08 182.006 979.17 175.876C977.13 172.676 975.81 168.976 971 168.196L974.87 172.996L964.06 167.776C959.32 165.486 946.03 154.826 944.65 154.506C942.06 153.916 938.98 152.536 937.57 151.016C936.45 149.806 936.67 146.646 936.33 144.766C933.46 142.136 929.81 139.426 926.74 137.106C916.07 129.056 922.12 137.366 904.2 123.366C901.29 121.086 884.25 111.546 887.5 110.566L890.92 109.536C886.16 103.396 878.61 100.956 872.28 96.5564C866.07 92.2364 860.83 86.8464 852.87 85.8764C845.94 85.0364 840.04 80.8465 833.54 78.4764L807.57 68.9664C805.32 68.1464 801.21 69.0164 799.09 68.3364L783.46 63.3064L784.63 66.9864C780.81 64.8564 775.51 62.0164 771.56 61.2664C770.72 61.1064 767.85 62.6064 767.55 61.8964L766.13 58.5064L759.88 59.0064L761.37 68.2564C758.82 68.6964 754.57 68.5064 751.78 67.7264L757.36 65.6964C756 62.2564 756.51 58.6364 756.99 55.8964C754 50.5664 747.25 51.1564 741.9 52.4764L738.09 53.4164C737.31 53.6064 737.94 56.0564 738.56 56.5764L741.84 59.3164L716.2 48.4064C714.61 47.7264 712.56 47.1564 710.92 46.7664L716.09 50.9064L699.07 47.4464L693.77 45.3464C687.88 43.0164 665.11 45.8764 667.46 42.7964L668.91 40.8964L662.76 39.0864L661.4 43.9764C655.83 41.7064 650.88 41.8064 646.26 44.5864L638.95 42.5064C638.66 42.4264 638.32 43.5464 638.52 43.7664L639.84 45.2464L632.88 42.9564C631.83 42.6064 631.09 39.9064 630.58 38.2564L646.26 41.8564C648.53 42.3764 651.39 41.7164 653.31 39.7764C642.55 34.2564 631.64 32.4064 620.64 28.6864C615.89 27.0764 611.4 25.3764 606.11 24.8464C594.63 23.7064 583.18 24.3664 571.69 25.9264L563.88 26.9864C564.9 28.2464 565.67 28.8664 565.29 29.0364L563.72 29.7464C559.28 31.7564 554.99 34.5464 550.22 36.0264C545.04 37.6264 538.71 38.3264 533.87 41.0264C532.55 41.8964 533.43 45.9064 534.5 47.0164C538.89 51.5864 545.63 48.3464 551.19 47.4464C553.29 47.9664 556.11 51.1964 557.71 53.5064L552.34 55.0964C551.32 52.3164 550.26 50.5264 548.62 50.7564C547.18 50.9564 544.46 51.5864 544.04 52.6964C543.62 53.8164 544.45 56.3164 544.99 58.3864C530.25 60.2064 537.92 58.8764 524.22 65.3464C521 66.8664 517.78 67.8664 514.34 68.6164L502.25 71.2564L510.5 73.8664C511.75 74.2564 513.55 76.2764 513.95 77.4964C514.29 78.5464 513.06 81.7064 511.77 81.7364L493.99 82.1164C492.73 82.1464 490.19 82.7164 490.16 83.6664C489.96 89.9964 488.65 95.4864 491.89 96.3864C493.88 96.9464 498.71 96.5364 499.38 98.1964C500.47 100.876 496.67 103.576 494.48 104.246C489.97 105.626 489.16 108.366 488.15 112.806C487.6 115.236 482.11 116.256 480.01 117.946C475.04 121.946 470.91 128.046 468.02 133.196C471.63 138.006 471.84 141.966 469.64 146.776C467.86 150.686 471.69 154.446 475.27 155.716C478.35 156.806 480.43 160.356 482.88 161.926C486.99 164.556 492 166.586 496.85 168.436C511.7 164.216 509.19 168.826 521.63 164.676C538.37 159.096 531.59 169.456 541.67 167.486C543.3 167.166 546.56 167.926 547.39 169.226C550.05 173.376 542.15 179.246 548.44 183.376C555.07 187.736 558.61 197.106 557.98 204.226C555.29 207.086 551.05 212.866 553.44 217.516C555.02 220.586 558.25 223.946 559.35 227.066C560.6 230.636 560.52 235.306 562.47 238.126C564.96 241.706 568.25 244.996 569.16 248.816C569.55 250.466 569.44 252.456 570.15 253.306C570.86 254.156 573.58 254.806 574.9 254.766C591.11 254.346 591.95 257.056 604.37 247.346C607.29 245.066 608.89 242.496 609.62 238.846L616.46 236.906C616.75 234.466 616.38 231.046 615.89 227.736C622.65 220.626 633.85 224.956 633.09 214.976C632.24 203.766 630.27 209.876 630.31 196.626C644.69 180.626 657.37 188.866 669.71 167.296C663.24 164.586 644.38 168.606 646.6 161.146L671.51 159.256C674.17 159.056 677.08 158.106 679.9 158.046C686.74 157.886 691.68 155.026 697.7 150.766C695.56 147.866 693.25 146.256 690.08 144.616L687.84 139.686C683.96 142.046 677.25 142.416 674.67 139.886C674.13 139.356 673.98 136.626 673.32 136.506L671.16 136.106L665.15 127.576C671.62 120.796 672.4 135.906 684.85 137.636C688.7 138.176 689.86 139.366 692.54 141.256C700.04 146.556 709.94 147.226 718.28 150.356L724.79 157.956C727.31 164.046 727.21 163.756 734.43 164.826C734.1 170.416 734.7 176.326 736.53 181.896L741.6 197.296C749.18 198.526 753.54 192.116 753.9 185.416L769.1 183.196C771.33 182.876 775.83 181.596 778.01 181.416C781.18 181.896 786.79 183.666 789.87 184.556C793.62 194.756 796.86 192.186 794.93 201.956L802.79 203.306C805.02 209.106 803.99 216.286 800.83 221.856C802.22 224.016 804.11 226.966 804.4 228.806L806.06 239.206C798.69 233.896 799.16 225.826 790.58 224.336C800.4 238.026 800.32 250.046 809.05 258.846C810.52 260.326 812.03 264.016 813.53 265.296C819.83 270.686 827.59 275.916 835.28 281.156C830.52 270.046 823.26 271.666 813.06 261.456C812.83 259.706 814.61 257.286 816.65 255.256C814.5 250.756 812.37 254.856 809.89 246.656C811.98 245.536 812.85 245.666 812.84 244.756L812.82 241.446C812.72 226.556 807.72 235.446 804.88 219.516L809.66 214.706C813.25 217.746 818.59 225.546 820.42 230.946C823.33 231.036 829.64 231.136 832.7 230.736C839.6 225.686 830.18 217.056 828.26 210.556C832.33 209.166 836.72 209.396 839.5 211.056C840.21 211.476 841.62 214.076 840.89 214.286C840.15 214.506 837.78 215.346 837.24 216.036C836.18 217.396 842.07 220.136 842.39 217.826L842.77 215.056C842.83 214.636 844.4 214.396 844.87 214.546L861.9 219.856C867.17 221.496 876.62 218.416 881.35 216.756C883.37 207.476 881.94 211.166 878.87 200.936L888.76 201.736C886.48 199.476 884.01 197.906 880.8 196.676L876.71 191.316L886.94 192.676C887.52 192.756 889.6 194.026 889.23 194.436L887.08 196.746C890.41 198.096 894.98 199.836 897.34 201.926C897.1 205.026 897.71 206.436 899.19 208.556C900 209.896 898.19 212.936 897.17 214.786C899.88 216.576 904.16 218.606 907.09 218.506C910.72 214.546 903.45 207.646 906.61 207.746C908.52 207.806 912.6 207.776 914.72 207.636C919.14 207.346 921.35 210.826 925.43 212.726C932.01 215.786 943.35 215.766 949.7 214.306C950.79 214.056 952.51 211.186 953.49 211.396C954.48 211.596 956.14 213.826 955.66 214.776L951.46 223.106L955.44 225.546C955.37 223.736 954.93 221.236 955.82 221.326L960.3 221.776L961.1 212.716C961.18 211.846 960.4 209.906 959.6 210.066L956.13 210.776C951.32 197.456 947.92 205.866 941.83 193.906L955.44 197.616C959.64 198.756 964.58 200.246 967.98 202.896L987.77 218.326C990.77 220.666 993.37 226.226 997.72 227.076C1022.52 231.946 1008.61 240.106 1027.53 245.406C1027.85 245.946 1028.5 247.066 1028.02 247.006C1027.7 246.966 1025.83 246.966 1025.46 246.806L1010.05 239.856C1006.42 238.216 1002.6 236.016 998.71 236.756C996.96 239.986 997.05 244.916 997.23 248.966L1011.06 252.286C1010.32 252.106 1020.63 255.466 1020.5 253.626L1020.2 249.256C1023.23 249.006 1026.61 250.866 1029.37 253.256L1038.69 261.336C1040.44 262.856 1042.81 265.686 1044.48 267.336C1054.5 273.006 1063.04 279.286 1070.62 287.456L1070.7 282.666L1075.27 285.016C1076.75 282.826 1078.4 279.986 1079.22 277.246C1071.5 267.456 1063.55 258.646 1055.11 250.346L1055.18 250.356ZM570.69 54.0064C571.38 47.1764 580.6 48.9164 578.67 47.3964L576.25 45.4964L573.78 43.5864C573.22 43.1564 575.33 41.0664 576.02 40.8964L585.46 38.4764C589.63 35.3564 594.09 33.8664 598.88 37.2464L586.95 40.8464C586.66 41.4864 586.86 45.2864 587.31 46.9164C595.58 50.1364 604.54 45.5064 610.07 49.7664L592.75 49.8664C589.1 49.8864 586.27 54.2564 584.19 57.3164C583 59.0664 579.14 58.7264 576.27 58.1964C572.99 57.5964 568.82 58.8664 566.05 58.6264L552.09 57.4564L570.68 54.0064H570.69ZM619.34 114.376C615.65 113.316 612.43 113.356 608.68 113.116C591.59 112.026 582.26 100.316 578.66 112.116C570.16 110.536 565.18 106.416 559.6 105.376C556.95 104.886 553.18 103.816 551.48 102.976C551.94 100.076 552.23 98.5964 551.98 97.2764C551.69 95.7264 548.81 95.3164 547.3 95.3764L530.91 95.9464C513.73 96.5364 515.95 102.126 502.36 99.2464C501.94 95.5064 513.61 98.8464 517.18 92.4864C523.13 81.8764 523.48 91.0864 529.3 82.1164C547.7 83.4764 542.68 75.4964 552.7 83.5764C557.3 87.2864 563.64 87.3764 567.98 91.5964C570.66 94.1964 558.92 93.9764 558.1 94.2564C559.22 95.4664 562.92 97.4264 564.32 96.6064L570.05 93.2464C570.58 92.9364 570.77 90.7664 571.35 90.5864L575.02 89.4764L564.01 84.5964C562.77 84.0464 553.55 77.6464 558.22 77.5864C562.21 77.5364 565.18 82.3364 571.8 83.7964C582.02 86.0464 573.85 86.7164 586.79 98.5964C588.15 99.8464 593.24 96.7464 592.92 95.6264L590 91.5964L598.81 90.8764C600.06 95.2164 601.37 98.6264 604.21 101.216L610.99 101.986L619.4 103.196L629.05 104.296C629.11 108.296 625.66 116.176 619.36 114.366L619.34 114.376ZM645.71 159.216C642.47 156.596 638.42 153.956 636.23 150.796C627.57 138.346 633.34 144.776 627.21 133.936L621.07 123.076C624.12 122.136 626.34 123.496 628.02 125.816L634.65 134.986C636.62 137.716 636.99 140.876 639.57 143.376C644 147.686 646.5 152.286 645.72 159.226L645.71 159.216ZM619.31 91.2564C613.94 92.0764 609.22 92.4364 605.01 87.8664C608.49 84.7064 611.71 81.9565 615.74 80.6564C618.5 79.7765 621.58 83.4165 623.78 85.2964C625.24 86.5364 629.9 85.6364 631.99 86.1364C638.01 87.5864 643.59 91.0664 648.71 95.3464C639.66 99.9664 628.71 89.8064 619.3 91.2464L619.31 91.2564ZM682.48 106.296C683.58 108.466 684.68 111.316 684.89 113.576C678.85 115.216 673.83 111.906 669.79 108.236L673.27 103.436C669.18 99.8465 667.05 97.1564 666.17 92.3564C672.92 91.1464 678.86 88.9964 685.46 93.6064L676.64 95.8864C678.6 98.3064 681.24 101.676 683.66 103.266L686.99 105.446L682.47 106.296H682.48ZM422.18 208.546L414.12 220.076C415.25 227.566 414.4 236.126 408.37 241.326C404.49 244.676 395.56 245.646 393.82 251.536C393.12 257.746 390.51 262.346 386.69 267.656C382.91 272.926 380.92 279.316 371.47 277.596L375.21 281.276C376.05 282.096 374.96 285.276 373.93 285.896L364.62 291.416C363.54 292.056 363.61 295.736 362.53 296.126L357.54 297.936C357.49 298.256 357.63 299.276 358.07 299.406L360.48 300.116L357.01 306.246L353.34 310.586L358.09 312.626L352.24 322.006C352.23 326.476 357.12 327.476 361.26 327.766C358.11 331.666 353.05 332.316 347.96 333.086C341.37 334.086 335.12 328.206 335.06 322.686C335.06 322.186 336.74 320.256 336.3 320.106L334.25 319.416L338.65 307.916L335.35 311.046C332.43 289.976 336.99 299.486 335.41 280.936C334.75 273.216 334.46 266.126 333.34 258.266C332.48 252.206 319.56 254.896 315.79 253.296C310.45 248.656 305.78 244.506 299.64 241.486C298.44 240.896 296.23 239.796 295.63 238.896C295.06 238.026 296.11 236.196 296.86 234.666C290.41 225.816 302.19 222.236 300.7 213.936C300.24 211.356 296.37 208.166 294.1 207.856C292.71 207.666 291.28 210.706 290.84 212.246C273.56 217.006 272.58 207.316 262.01 211.236C258.69 212.466 254.59 213.246 251.06 212.726C246.88 212.106 245.26 214.386 241.95 216.026C233.92 220.006 223.1 221.376 214.07 222.506C212.47 218.796 210.59 217.136 206.98 216.896L193.04 215.966C182.79 215.276 181.02 210.116 179.51 216.206C186.73 217.626 193.01 219.296 200.16 222.236C197.76 223.136 194.23 223.816 192.55 223.236C189.94 222.376 187.77 221.716 185.6 222.116L182.92 222.606C182.35 222.716 182.64 220.796 182.6 220.316C178.5 219.736 175.42 218.986 171.39 217.346C166.59 215.396 160.3 223.066 145.99 215.856C143.33 214.516 142.04 208.856 141.61 206.306C140.85 201.796 136.72 200.846 133.05 201.966L126.25 204.036C126.76 200.216 111.71 203.426 113.28 202.876C110.42 203.876 106.75 206.016 103.57 206.676L95.08 208.426C86.83 210.126 79.93 215.196 73.62 220.586C70.48 223.276 65.47 225.036 63.09 228.146L58.39 234.306L52.18 241.546L50.09 239.246L45.77 248.916C41.34 258.826 35.47 267.596 28.11 275.356C29.38 268.506 36.02 265.866 36.32 258.486L26.3 267.006C25.3 267.856 22.07 268.446 21.13 269.396C18.68 271.876 15.02 275.796 10.51 274.306C12 266.456 20.41 262.146 20.77 256.966L7.71 269.666C6.54 270.796 3.7 271.796 2 272.326C8.04 261.306 10.04 262.966 15.38 256.546L2.56 263.726L11.51 250.266C15.46 244.326 20.38 237.716 26.01 233.056L53.88 209.966C63.79 201.756 73.97 194.966 84.29 187.286C87.64 184.796 90.99 181.016 94.21 178.236L106.14 167.956C108.71 165.736 111.68 164.456 114.63 162.516L121.88 157.766C124.6 155.986 127.38 153.576 130.21 152.136C135.27 149.556 139.24 147.666 143.79 144.286L132.39 143.506C128.48 150.396 122.58 154.826 114.6 156.826L116.57 149.576C121.15 146.196 125.69 143.196 130.44 140.166C143.06 132.096 144.99 134.356 157.95 125.976C161.03 123.976 163.78 122.936 167.53 122.326L166.39 120.946C166.12 120.626 166.77 119.356 167.16 119.076L174.6 113.626C176.3 116.126 178.52 117.706 180.7 117.046L190.03 114.246C187.54 119.016 184.61 120.406 181 123.216C187.35 121.046 192.69 117.936 198.57 114.386L197.14 111.196L203.78 106.896L205.18 100.656C205.48 99.3064 205.37 96.4464 205.76 95.1764C206.15 93.9064 209.16 93.2264 210.62 92.6964L219.5 89.5164L210.84 97.8964L224.99 98.4564C225.93 97.7664 227.82 96.2664 228.64 95.7564C229.62 95.1464 231.59 96.5864 233.47 97.8564C235.58 95.9264 237.33 94.1064 239.63 90.0364C234.31 89.6364 227.8 96.0864 222.67 91.5864C224.72 88.1764 227.4 85.8964 230.44 83.2664C222.07 84.2664 219.2 91.2064 211.52 88.1764L201.21 92.2564L193.13 91.4764C207.93 81.2264 204.06 93.7864 218.67 81.9564C220.73 80.2864 226.81 80.8264 225.86 75.5064C218.5 80.0364 211.69 83.3764 203.77 84.7864L197.11 85.9764C201.93 78.8165 208.65 76.2364 217.18 74.7164L213.64 72.9064L232.13 63.0264L244.4 56.4864C259.64 48.3564 291.3 35.6264 308.95 32.3464L299.93 37.7764C312.99 34.6964 306.62 33.9364 315.73 30.6964C325.11 27.3564 333.94 24.6864 343.45 21.9664C345.65 21.3364 348.25 19.9964 350.79 19.6664C353.92 19.2564 356.86 16.7164 359.53 15.9864L382.82 9.63645C401.3 4.59645 419.64 1.40645 438.94 0.926446L445.94 2.88645L456.53 1.33645C462.79 0.416446 468.64 -0.463554 475.12 0.276446C467.63 2.54645 459.93 3.72645 452.76 7.02645L447.76 9.32645C445.76 9.72645 445.68 10.0264 447.61 10.1564C450.55 9.92645 453.31 10.1464 454.52 13.0364L446.95 13.1764L453.07 17.5864L445.86 21.0464C445.15 21.3864 442.95 21.9764 443.17 22.6564L444.56 26.8064C443.69 27.4464 440.94 29.7564 439.18 30.3064L410.1 39.4664C403.36 41.5864 398.33 47.0064 390.63 47.7364C387.41 48.0464 385.54 51.2064 383.65 53.6464C377.04 62.1864 378.64 64.9964 372.09 64.5864C361.94 63.9564 359.57 68.9464 341.42 57.5864C339.35 55.0064 345.02 50.6864 347.69 52.1564L347.75 48.9864C344.16 51.1464 340.88 52.5064 336.42 52.4564L337.73 48.6664L334.23 49.1664C333.36 49.2864 332.42 46.3464 331.64 45.9464C314.18 37.0364 292.16 59.8864 274.71 53.7464L297.93 42.8564L290.18 42.5464L269.31 54.4364C266.58 55.9864 264.77 59.8864 260.85 60.9664C259.21 61.4164 258 63.7864 257.11 65.3664C255.08 68.9764 249.17 68.9664 245.65 70.7464L222.91 82.2664C224.37 84.3964 256.62 64.0964 253.61 70.8064C253.45 71.1664 252.44 72.2364 251.89 72.4964L232.76 81.3564C235.32 82.1064 238.14 81.1864 240.78 79.7964C266.6 66.2564 256.36 72.8664 280.72 67.7964L293.29 65.1864C293.89 65.0564 296.15 65.1864 296.3 65.7364L296.91 68.0664L315.75 65.5264C311.19 75.9164 298.99 71.1364 299.11 72.5664C299.54 77.8064 305.09 71.2664 308.13 75.8764C309.93 78.6064 302.54 78.5864 302.48 79.3064L302.3 81.5464C297.68 82.4664 292.05 84.6864 287.07 84.6264C271.49 84.4464 268.87 91.0064 266.49 90.0064L265.27 89.4964C264.79 89.2964 266.21 87.6064 266.67 87.3664C274.53 83.3064 272.71 88.0264 280.59 76.5564C270.43 77.8964 273.65 81.8564 265.91 83.0964L268.66 78.5664L261.08 78.7764C257.7 81.1664 254.06 82.9764 250.52 84.2664L252.46 89.9064L244.33 96.8064C249.17 95.9664 252.78 95.4164 257.07 95.5664L248.16 99.1264C245.53 102.046 242.16 103.956 238.49 103.916L238.64 99.4864C234.91 105.896 213.82 118.776 216.92 125.206L225.63 124.836L238.19 121.156C244.14 119.416 250.42 118.186 256.06 116.036L261.44 118.986C262.44 119.536 265.16 120.346 266.28 120.106C267.59 119.826 269.23 117.806 269.85 116.596L266.22 112.586C269.36 110.366 271.81 108.636 274.46 104.516C272.4 103.666 269.42 102.886 267.74 102.486C268.4 100.816 268.08 98.3364 266.96 95.3664C266.34 93.7264 270.87 92.4864 272.73 91.6764C278.57 89.1164 283.66 87.9165 289.99 87.5464L292.5 87.3964C293.15 87.3564 293.98 89.1664 294.59 89.4264C299.63 91.5264 306.25 88.7864 308.21 82.6764C314.05 82.4964 318.98 85.7864 324.38 87.5064C329.34 89.0864 335.88 85.9964 340.57 89.0064L341.42 96.2464C346.62 94.2064 350.6 95.1964 352.24 99.7064L332.27 103.566L336.99 93.7764L327.42 99.4964C325.23 100.806 321.4 101.666 319.07 102.356C324.89 108.166 312.66 98.5664 304.02 111.016C308.03 108.926 311.2 107.356 315.31 105.966L315.38 110.976L325.22 109.916C326.85 109.736 327.74 104.116 330.66 108.506L315.64 118.266C315.27 118.506 313.96 119.156 313.64 119.306C313.22 119.506 312.68 118.516 312.79 118.066L313.32 115.986L300.77 124.146C299.83 124.756 299.82 126.856 300.55 128.626C289.96 137.456 293.83 130.756 286.57 144.546L287.88 147.376C288.64 149.016 276.27 158.986 274.27 163.206C273.14 166.436 284.95 172.486 280.33 174.976C276.26 177.176 273.27 173.956 270.93 170.716C269.86 169.226 266.2 171.286 264.41 171.376C258.61 171.676 254.25 176.826 249.88 179.546C243.13 183.736 234.17 184.966 231.38 194.296L232.97 203.666C233.37 206.006 237.68 208.396 239.93 208.786C243.01 209.316 246.98 207.366 249.66 205.666C260.09 199.056 248.24 197.256 264.46 191.406L263.35 204.306C269.32 203.816 269.93 199.106 278.52 199.706L279.63 208.446C283.4 212.266 288.82 209.846 291.76 206.866C293.31 205.856 297.61 205.746 299.71 205.366C301.31 205.076 302.13 200.276 303.49 199.156L312.46 191.806L314.13 194.026C319.21 187.576 324.02 193.526 332.07 188.806C341.43 183.326 334.35 188.376 342.58 185.236C342.98 185.086 343.95 186.946 344.36 187.066L356.75 190.606C378.02 183.436 375.38 197.466 382.04 197.366C387.82 197.276 391.81 197.366 397.08 198.146C400.28 198.616 405.63 196.716 408.67 197.406L420.87 200.166C424.2 200.916 424.21 205.726 422.25 208.526L422.18 208.546ZM913.08 373.836C915.51 379.856 915.05 388.406 907.54 390.496C904.3 391.396 899.76 392.996 896.73 394.936C892.38 394.626 887.43 392.136 883.94 388.866C880.52 385.666 874.77 382.566 873.8 377.766C873 373.786 872.23 370.576 869.58 368.026C869.93 367.576 871.15 366.376 870.83 366.276C870.35 366.126 869.13 365.736 868.63 365.646L865.85 365.176C863.8 364.836 867.43 354.866 849.03 346.876C844.94 345.096 841.05 344.166 836.69 342.896C833.37 341.926 829.77 338.656 825.96 338.156C822.22 337.666 817.57 334.996 817.45 331.586C818.44 330.076 820.03 327.086 819.8 325.426L818.32 314.586L821.44 306.256C835.16 305.336 839.53 315.306 847.83 309.046C855.7 311.276 859.62 304.206 864.89 315.136L872.49 314.136C874.51 314.846 875.95 315.186 877.39 314.896L887.49 324.026L882.18 327.036L891.27 340.696C898.19 341.786 896.04 333.196 902.69 331.936C903.07 337.626 903.46 340.546 905.33 344.536L905.78 355.176C911.24 364.036 908.61 362.776 913.08 373.826V373.836ZM918.14 335.256L921.97 345.976C914.24 342.386 914.42 330.706 910.19 330.406C897.78 329.506 903.26 323.966 893.57 318.816L896.13 316.906C896.78 316.426 896.38 313.686 895.83 313.056L884.75 300.316C884.21 298.376 883.41 295.276 882.05 292.326C887.32 292.526 891.19 297.206 890.08 303.776L898.86 305.246L911.52 319.586C914.2 322.626 915.72 326.826 917.84 330.346L919.36 332.876C919.67 333.386 918.64 334.456 918.15 335.266L918.14 335.256ZM850.93 265.836L841.26 271.936C839.75 272.886 836.99 270.036 835.3 268.696C832.56 266.536 828.83 264.036 826.45 261.646C825.44 256.276 823.82 254.986 825.92 251.356C826.28 250.736 828.02 252.176 828.77 252.306C835.99 253.496 843.18 253.306 851.07 252.756L855.45 259.026L850.6 261.006C849.57 261.426 850.97 265.066 850.92 265.836H850.93ZM657.8 226.646L648.12 242.976C646.38 245.916 639.76 244.156 638.84 241.846C637.55 238.616 637.25 234.826 640.74 232.576L641.4 224.306C647.54 223.426 651.86 222.136 656.48 217.866C659 219.806 659.48 223.836 657.81 226.646H657.8ZM958.94 236.116C953.65 235.206 950.65 233.086 945.41 228.976L945.7 235.636L937.82 240.746L927.87 236.076L919.89 232.336C916.96 230.966 914.42 229.656 912.82 227.226C911.82 228.146 909.53 229.956 908.22 229.906C906.59 229.846 905.6 225.786 906.08 223.576C913.08 222.986 919.26 226.256 925.01 230.236C929.72 228.846 936.04 235.556 939.3 232.046C940.47 230.786 942.1 227.686 942.91 226.396C945.42 226.396 948.46 226.046 950.61 225.356L958.93 236.106L958.94 236.116ZM496.69 52.6964C498.06 49.4764 504.17 47.8664 506.85 48.3164C507.81 49.3764 508.38 49.8864 510.11 51.2664L510.54 54.4264L519.91 60.4264C520.43 60.7664 522.35 61.2964 522.87 61.3164C523.58 61.3464 521.28 64.9964 520.45 65.0864L502.14 67.2364L503.35 65.1764C503.56 64.8064 503.08 64.4064 502.31 63.2964L507.21 58.4264C503.55 57.1264 498.33 56.5264 496.69 52.6864V52.6964ZM552.89 2.29645C558.1 1.85645 562.51 2.38645 567.22 2.38645C580.58 2.40645 593.65 1.43645 607.19 5.56645C600.78 6.25645 594.94 5.61645 587.09 5.16645L596.96 9.29645C591.7 11.2564 588.24 8.16645 583.53 6.31645C569.23 9.75645 575.88 12.4864 560.35 5.67645C557.64 4.48645 555.02 6.38645 552.89 2.28645V2.29645ZM704.92 44.2064C698.39 43.1164 693.22 41.0364 687.96 37.5564C703.19 32.5164 713.3 33.8364 728.05 37.9464C734.12 39.6364 740.21 39.5964 746.35 42.5164C739.57 42.9764 733.4 40.3864 726.65 39.2964C717.99 37.8964 709.67 37.5564 701.04 39.8164L704.92 44.2064ZM129.7 137.476L120.52 142.576C124.61 137.406 132.24 130.996 137.33 127.476C137.9 127.086 139.53 128.406 140.04 128.266C140.69 128.096 141.8 126.876 142.45 126.576L157.38 119.556C160.52 111.736 159.85 116.856 169.23 111.666C169.54 111.496 170.94 111.026 171.26 110.946C171.58 110.866 171.63 111.626 171.44 111.896C171.24 112.186 170.45 113.106 170.1 113.346L149.61 127.516C146.14 129.916 141.5 130.386 138.12 133.576C137.57 133.476 137.29 133.466 137.2 133.156L136.65 131.156C135.12 133.946 132.75 135.776 129.69 137.486L129.7 137.476ZM472.21 37.0264C463.57 39.8864 454.23 44.3864 444.83 41.2464L438.35 39.0864C440.4 36.0164 444.28 37.8164 447.35 37.3064L459.57 35.2764C464.05 34.5364 468.55 32.6764 472.21 37.0264ZM856.95 270.466L868.26 277.316C867.63 277.896 865.06 277.716 863.98 276.966L855.95 271.396C855.55 271.116 853.8 272.146 853.98 272.606C855.83 277.356 858.36 274.266 862.67 279.016L857.47 278.256L858.69 287.036C854.53 285.256 854.81 281.586 853.58 278.206L849.88 283.076C849.08 280.176 848.68 276.216 849.77 274.436C851.06 272.326 855.13 269.356 856.95 270.456V270.466ZM847.5 79.0664C840.01 75.7264 829.87 70.0864 822.44 64.9664C836.96 63.8264 841.83 73.6564 846.3 75.8864L848.59 77.0264C849.07 77.2664 848.23 79.3864 847.51 79.0664H847.5ZM485.62 65.4564V59.9264C490.23 57.2864 494.77 54.7764 499.74 57.6964C496.55 64.9164 496.56 63.5464 485.62 65.4564ZM202.95 101.586C200.28 105.366 196.71 107.616 192.27 108.836L184.35 110.996L188.96 105.736C190.78 103.656 198.52 97.6764 202.95 101.586ZM873.69 253.836C872.48 251.256 870.69 248.486 868.71 247.586C867.7 248.206 866.48 249.256 866.36 248.736L865.69 245.916C864.69 241.706 865.69 237.416 870.09 236.356C872.02 235.886 874.64 240.966 873.09 241.926L870.08 243.796C866.84 245.806 878.87 250.836 873.69 253.846V253.836ZM293.29 178.286H300.05C293.35 184.746 290.7 179.956 280.39 181.976L270.5 186.596C275.96 179.796 284.78 178.256 293.29 178.276V178.286ZM962.32 157.776C962.42 153.586 987.3 175.366 985.69 174.896C981.5 173.846 963.65 161.286 962.32 157.776ZM174.88 106.936C183.98 103.036 187.45 97.0564 197.23 95.4864C201.8 98.5664 174.75 108.446 174.88 106.936ZM876.15 262.466C877.55 262.866 878.1 266.716 877.2 267.466C876.29 268.226 874.36 268.606 872.86 268.746C869.68 269.056 872.14 264.836 865.8 259.486L876.15 262.466ZM699.51 20.0464L713.48 21.2964C713.93 21.8564 715.69 24.0164 716.4 24.2164L725.13 26.7164C719.14 27.0864 704.53 23.7264 699.51 20.0464ZM888.31 398.096C888.89 398.566 889.18 400.746 888.63 401.046C887.89 401.446 885.75 402.076 884.74 401.796C881.97 401.036 879.69 395.496 881.76 392.796L888.31 398.096ZM317.88 175.496C312.88 178.316 308.48 180.306 303.39 181.896C305.02 175.306 312.33 173.506 317.88 175.496ZM170.98 102.616C171.91 101.296 188.91 92.5664 190.29 95.2564C190.48 95.3364 169.22 106.526 170.98 102.616ZM751.65 196.846L755.59 204.816C752.99 205.416 751.97 205.656 750.89 205.776C749.92 205.886 748.52 202.956 748.71 201.926C749.05 200.136 750.16 198.266 751.65 196.846ZM876.33 259.226C874.44 259.256 871.18 258.816 868.35 258.386L868.29 251.186L873.63 257.776L875.25 255.486C875.64 254.936 876.85 255.546 877.54 255.866C878.14 256.136 876.98 259.206 876.32 259.216L876.33 259.226ZM848.72 81.4864C855.72 80.0864 860.54 84.3764 864.59 88.8764C858.51 86.4664 853.76 84.2064 848.72 81.4864ZM147.96 120.846C148.75 117.136 151.6 115.266 154.63 113.676L156.32 112.796C160.38 110.676 153.74 120.156 147.96 120.846ZM548.14 90.2264C547.9 90.7365 545.72 92.0664 545.41 91.6664C545.11 91.2764 544.15 89.9464 544.3 89.4164L546.17 83.0464C548.18 84.4364 548.94 88.5364 548.14 90.2264Z"/>
</mask>
<path d="M1055.18 250.356L1052.83 251.296C1052.32 251.496 1050.9 249.476 1050.79 248.846C1050.3 245.896 1047.14 243.456 1044.77 241.286L1025.99 224.076C1025.5 222.906 1024.6 219.856 1023.73 218.936C1011.42 205.876 1009.26 208.746 995.96 191.906C991.12 185.776 983.08 182.006 979.17 175.876C977.13 172.676 975.81 168.976 971 168.196L974.87 172.996L964.06 167.776C959.32 165.486 946.03 154.826 944.65 154.506C942.06 153.916 938.98 152.536 937.57 151.016C936.45 149.806 936.67 146.646 936.33 144.766C933.46 142.136 929.81 139.426 926.74 137.106C916.07 129.056 922.12 137.366 904.2 123.366C901.29 121.086 884.25 111.546 887.5 110.566L890.92 109.536C886.16 103.396 878.61 100.956 872.28 96.5564C866.07 92.2364 860.83 86.8464 852.87 85.8764C845.94 85.0364 840.04 80.8465 833.54 78.4764L807.57 68.9664C805.32 68.1464 801.21 69.0164 799.09 68.3364L783.46 63.3064L784.63 66.9864C780.81 64.8564 775.51 62.0164 771.56 61.2664C770.72 61.1064 767.85 62.6064 767.55 61.8964L766.13 58.5064L759.88 59.0064L761.37 68.2564C758.82 68.6964 754.57 68.5064 751.78 67.7264L757.36 65.6964C756 62.2564 756.51 58.6364 756.99 55.8964C754 50.5664 747.25 51.1564 741.9 52.4764L738.09 53.4164C737.31 53.6064 737.94 56.0564 738.56 56.5764L741.84 59.3164L716.2 48.4064C714.61 47.7264 712.56 47.1564 710.92 46.7664L716.09 50.9064L699.07 47.4464L693.77 45.3464C687.88 43.0164 665.11 45.8764 667.46 42.7964L668.91 40.8964L662.76 39.0864L661.4 43.9764C655.83 41.7064 650.88 41.8064 646.26 44.5864L638.95 42.5064C638.66 42.4264 638.32 43.5464 638.52 43.7664L639.84 45.2464L632.88 42.9564C631.83 42.6064 631.09 39.9064 630.58 38.2564L646.26 41.8564C648.53 42.3764 651.39 41.7164 653.31 39.7764C642.55 34.2564 631.64 32.4064 620.64 28.6864C615.89 27.0764 611.4 25.3764 606.11 24.8464C594.63 23.7064 583.18 24.3664 571.69 25.9264L563.88 26.9864C564.9 28.2464 565.67 28.8664 565.29 29.0364L563.72 29.7464C559.28 31.7564 554.99 34.5464 550.22 36.0264C545.04 37.6264 538.71 38.3264 533.87 41.0264C532.55 41.8964 533.43 45.9064 534.5 47.0164C538.89 51.5864 545.63 48.3464 551.19 47.4464C553.29 47.9664 556.11 51.1964 557.71 53.5064L552.34 55.0964C551.32 52.3164 550.26 50.5264 548.62 50.7564C547.18 50.9564 544.46 51.5864 544.04 52.6964C543.62 53.8164 544.45 56.3164 544.99 58.3864C530.25 60.2064 537.92 58.8764 524.22 65.3464C521 66.8664 517.78 67.8664 514.34 68.6164L502.25 71.2564L510.5 73.8664C511.75 74.2564 513.55 76.2764 513.95 77.4964C514.29 78.5464 513.06 81.7064 511.77 81.7364L493.99 82.1164C492.73 82.1464 490.19 82.7164 490.16 83.6664C489.96 89.9964 488.65 95.4864 491.89 96.3864C493.88 96.9464 498.71 96.5364 499.38 98.1964C500.47 100.876 496.67 103.576 494.48 104.246C489.97 105.626 489.16 108.366 488.15 112.806C487.6 115.236 482.11 116.256 480.01 117.946C475.04 121.946 470.91 128.046 468.02 133.196C471.63 138.006 471.84 141.966 469.64 146.776C467.86 150.686 471.69 154.446 475.27 155.716C478.35 156.806 480.43 160.356 482.88 161.926C486.99 164.556 492 166.586 496.85 168.436C511.7 164.216 509.19 168.826 521.63 164.676C538.37 159.096 531.59 169.456 541.67 167.486C543.3 167.166 546.56 167.926 547.39 169.226C550.05 173.376 542.15 179.246 548.44 183.376C555.07 187.736 558.61 197.106 557.98 204.226C555.29 207.086 551.05 212.866 553.44 217.516C555.02 220.586 558.25 223.946 559.35 227.066C560.6 230.636 560.52 235.306 562.47 238.126C564.96 241.706 568.25 244.996 569.16 248.816C569.55 250.466 569.44 252.456 570.15 253.306C570.86 254.156 573.58 254.806 574.9 254.766C591.11 254.346 591.95 257.056 604.37 247.346C607.29 245.066 608.89 242.496 609.62 238.846L616.46 236.906C616.75 234.466 616.38 231.046 615.89 227.736C622.65 220.626 633.85 224.956 633.09 214.976C632.24 203.766 630.27 209.876 630.31 196.626C644.69 180.626 657.37 188.866 669.71 167.296C663.24 164.586 644.38 168.606 646.6 161.146L671.51 159.256C674.17 159.056 677.08 158.106 679.9 158.046C686.74 157.886 691.68 155.026 697.7 150.766C695.56 147.866 693.25 146.256 690.08 144.616L687.84 139.686C683.96 142.046 677.25 142.416 674.67 139.886C674.13 139.356 673.98 136.626 673.32 136.506L671.16 136.106L665.15 127.576C671.62 120.796 672.4 135.906 684.85 137.636C688.7 138.176 689.86 139.366 692.54 141.256C700.04 146.556 709.94 147.226 718.28 150.356L724.79 157.956C727.31 164.046 727.21 163.756 734.43 164.826C734.1 170.416 734.7 176.326 736.53 181.896L741.6 197.296C749.18 198.526 753.54 192.116 753.9 185.416L769.1 183.196C771.33 182.876 775.83 181.596 778.01 181.416C781.18 181.896 786.79 183.666 789.87 184.556C793.62 194.756 796.86 192.186 794.93 201.956L802.79 203.306C805.02 209.106 803.99 216.286 800.83 221.856C802.22 224.016 804.11 226.966 804.4 228.806L806.06 239.206C798.69 233.896 799.16 225.826 790.58 224.336C800.4 238.026 800.32 250.046 809.05 258.846C810.52 260.326 812.03 264.016 813.53 265.296C819.83 270.686 827.59 275.916 835.28 281.156C830.52 270.046 823.26 271.666 813.06 261.456C812.83 259.706 814.61 257.286 816.65 255.256C814.5 250.756 812.37 254.856 809.89 246.656C811.98 245.536 812.85 245.666 812.84 244.756L812.82 241.446C812.72 226.556 807.72 235.446 804.88 219.516L809.66 214.706C813.25 217.746 818.59 225.546 820.42 230.946C823.33 231.036 829.64 231.136 832.7 230.736C839.6 225.686 830.18 217.056 828.26 210.556C832.33 209.166 836.72 209.396 839.5 211.056C840.21 211.476 841.62 214.076 840.89 214.286C840.15 214.506 837.78 215.346 837.24 216.036C836.18 217.396 842.07 220.136 842.39 217.826L842.77 215.056C842.83 214.636 844.4 214.396 844.87 214.546L861.9 219.856C867.17 221.496 876.62 218.416 881.35 216.756C883.37 207.476 881.94 211.166 878.87 200.936L888.76 201.736C886.48 199.476 884.01 197.906 880.8 196.676L876.71 191.316L886.94 192.676C887.52 192.756 889.6 194.026 889.23 194.436L887.08 196.746C890.41 198.096 894.98 199.836 897.34 201.926C897.1 205.026 897.71 206.436 899.19 208.556C900 209.896 898.19 212.936 897.17 214.786C899.88 216.576 904.16 218.606 907.09 218.506C910.72 214.546 903.45 207.646 906.61 207.746C908.52 207.806 912.6 207.776 914.72 207.636C919.14 207.346 921.35 210.826 925.43 212.726C932.01 215.786 943.35 215.766 949.7 214.306C950.79 214.056 952.51 211.186 953.49 211.396C954.48 211.596 956.14 213.826 955.66 214.776L951.46 223.106L955.44 225.546C955.37 223.736 954.93 221.236 955.82 221.326L960.3 221.776L961.1 212.716C961.18 211.846 960.4 209.906 959.6 210.066L956.13 210.776C951.32 197.456 947.92 205.866 941.83 193.906L955.44 197.616C959.64 198.756 964.58 200.246 967.98 202.896L987.77 218.326C990.77 220.666 993.37 226.226 997.72 227.076C1022.52 231.946 1008.61 240.106 1027.53 245.406C1027.85 245.946 1028.5 247.066 1028.02 247.006C1027.7 246.966 1025.83 246.966 1025.46 246.806L1010.05 239.856C1006.42 238.216 1002.6 236.016 998.71 236.756C996.96 239.986 997.05 244.916 997.23 248.966L1011.06 252.286C1010.32 252.106 1020.63 255.466 1020.5 253.626L1020.2 249.256C1023.23 249.006 1026.61 250.866 1029.37 253.256L1038.69 261.336C1040.44 262.856 1042.81 265.686 1044.48 267.336C1054.5 273.006 1063.04 279.286 1070.62 287.456L1070.7 282.666L1075.27 285.016C1076.75 282.826 1078.4 279.986 1079.22 277.246C1071.5 267.456 1063.55 258.646 1055.11 250.346L1055.18 250.356ZM570.69 54.0064C571.38 47.1764 580.6 48.9164 578.67 47.3964L576.25 45.4964L573.78 43.5864C573.22 43.1564 575.33 41.0664 576.02 40.8964L585.46 38.4764C589.63 35.3564 594.09 33.8664 598.88 37.2464L586.95 40.8464C586.66 41.4864 586.86 45.2864 587.31 46.9164C595.58 50.1364 604.54 45.5064 610.07 49.7664L592.75 49.8664C589.1 49.8864 586.27 54.2564 584.19 57.3164C583 59.0664 579.14 58.7264 576.27 58.1964C572.99 57.5964 568.82 58.8664 566.05 58.6264L552.09 57.4564L570.68 54.0064H570.69ZM619.34 114.376C615.65 113.316 612.43 113.356 608.68 113.116C591.59 112.026 582.26 100.316 578.66 112.116C570.16 110.536 565.18 106.416 559.6 105.376C556.95 104.886 553.18 103.816 551.48 102.976C551.94 100.076 552.23 98.5964 551.98 97.2764C551.69 95.7264 548.81 95.3164 547.3 95.3764L530.91 95.9464C513.73 96.5364 515.95 102.126 502.36 99.2464C501.94 95.5064 513.61 98.8464 517.18 92.4864C523.13 81.8764 523.48 91.0864 529.3 82.1164C547.7 83.4764 542.68 75.4964 552.7 83.5764C557.3 87.2864 563.64 87.3764 567.98 91.5964C570.66 94.1964 558.92 93.9764 558.1 94.2564C559.22 95.4664 562.92 97.4264 564.32 96.6064L570.05 93.2464C570.58 92.9364 570.77 90.7664 571.35 90.5864L575.02 89.4764L564.01 84.5964C562.77 84.0464 553.55 77.6464 558.22 77.5864C562.21 77.5364 565.18 82.3364 571.8 83.7964C582.02 86.0464 573.85 86.7164 586.79 98.5964C588.15 99.8464 593.24 96.7464 592.92 95.6264L590 91.5964L598.81 90.8764C600.06 95.2164 601.37 98.6264 604.21 101.216L610.99 101.986L619.4 103.196L629.05 104.296C629.11 108.296 625.66 116.176 619.36 114.366L619.34 114.376ZM645.71 159.216C642.47 156.596 638.42 153.956 636.23 150.796C627.57 138.346 633.34 144.776 627.21 133.936L621.07 123.076C624.12 122.136 626.34 123.496 628.02 125.816L634.65 134.986C636.62 137.716 636.99 140.876 639.57 143.376C644 147.686 646.5 152.286 645.72 159.226L645.71 159.216ZM619.31 91.2564C613.94 92.0764 609.22 92.4364 605.01 87.8664C608.49 84.7064 611.71 81.9565 615.74 80.6564C618.5 79.7765 621.58 83.4165 623.78 85.2964C625.24 86.5364 629.9 85.6364 631.99 86.1364C638.01 87.5864 643.59 91.0664 648.71 95.3464C639.66 99.9664 628.71 89.8064 619.3 91.2464L619.31 91.2564ZM682.48 106.296C683.58 108.466 684.68 111.316 684.89 113.576C678.85 115.216 673.83 111.906 669.79 108.236L673.27 103.436C669.18 99.8465 667.05 97.1564 666.17 92.3564C672.92 91.1464 678.86 88.9964 685.46 93.6064L676.64 95.8864C678.6 98.3064 681.24 101.676 683.66 103.266L686.99 105.446L682.47 106.296H682.48ZM422.18 208.546L414.12 220.076C415.25 227.566 414.4 236.126 408.37 241.326C404.49 244.676 395.56 245.646 393.82 251.536C393.12 257.746 390.51 262.346 386.69 267.656C382.91 272.926 380.92 279.316 371.47 277.596L375.21 281.276C376.05 282.096 374.96 285.276 373.93 285.896L364.62 291.416C363.54 292.056 363.61 295.736 362.53 296.126L357.54 297.936C357.49 298.256 357.63 299.276 358.07 299.406L360.48 300.116L357.01 306.246L353.34 310.586L358.09 312.626L352.24 322.006C352.23 326.476 357.12 327.476 361.26 327.766C358.11 331.666 353.05 332.316 347.96 333.086C341.37 334.086 335.12 328.206 335.06 322.686C335.06 322.186 336.74 320.256 336.3 320.106L334.25 319.416L338.65 307.916L335.35 311.046C332.43 289.976 336.99 299.486 335.41 280.936C334.75 273.216 334.46 266.126 333.34 258.266C332.48 252.206 319.56 254.896 315.79 253.296C310.45 248.656 305.78 244.506 299.64 241.486C298.44 240.896 296.23 239.796 295.63 238.896C295.06 238.026 296.11 236.196 296.86 234.666C290.41 225.816 302.19 222.236 300.7 213.936C300.24 211.356 296.37 208.166 294.1 207.856C292.71 207.666 291.28 210.706 290.84 212.246C273.56 217.006 272.58 207.316 262.01 211.236C258.69 212.466 254.59 213.246 251.06 212.726C246.88 212.106 245.26 214.386 241.95 216.026C233.92 220.006 223.1 221.376 214.07 222.506C212.47 218.796 210.59 217.136 206.98 216.896L193.04 215.966C182.79 215.276 181.02 210.116 179.51 216.206C186.73 217.626 193.01 219.296 200.16 222.236C197.76 223.136 194.23 223.816 192.55 223.236C189.94 222.376 187.77 221.716 185.6 222.116L182.92 222.606C182.35 222.716 182.64 220.796 182.6 220.316C178.5 219.736 175.42 218.986 171.39 217.346C166.59 215.396 160.3 223.066 145.99 215.856C143.33 214.516 142.04 208.856 141.61 206.306C140.85 201.796 136.72 200.846 133.05 201.966L126.25 204.036C126.76 200.216 111.71 203.426 113.28 202.876C110.42 203.876 106.75 206.016 103.57 206.676L95.08 208.426C86.83 210.126 79.93 215.196 73.62 220.586C70.48 223.276 65.47 225.036 63.09 228.146L58.39 234.306L52.18 241.546L50.09 239.246L45.77 248.916C41.34 258.826 35.47 267.596 28.11 275.356C29.38 268.506 36.02 265.866 36.32 258.486L26.3 267.006C25.3 267.856 22.07 268.446 21.13 269.396C18.68 271.876 15.02 275.796 10.51 274.306C12 266.456 20.41 262.146 20.77 256.966L7.71 269.666C6.54 270.796 3.7 271.796 2 272.326C8.04 261.306 10.04 262.966 15.38 256.546L2.56 263.726L11.51 250.266C15.46 244.326 20.38 237.716 26.01 233.056L53.88 209.966C63.79 201.756 73.97 194.966 84.29 187.286C87.64 184.796 90.99 181.016 94.21 178.236L106.14 167.956C108.71 165.736 111.68 164.456 114.63 162.516L121.88 157.766C124.6 155.986 127.38 153.576 130.21 152.136C135.27 149.556 139.24 147.666 143.79 144.286L132.39 143.506C128.48 150.396 122.58 154.826 114.6 156.826L116.57 149.576C121.15 146.196 125.69 143.196 130.44 140.166C143.06 132.096 144.99 134.356 157.95 125.976C161.03 123.976 163.78 122.936 167.53 122.326L166.39 120.946C166.12 120.626 166.77 119.356 167.16 119.076L174.6 113.626C176.3 116.126 178.52 117.706 180.7 117.046L190.03 114.246C187.54 119.016 184.61 120.406 181 123.216C187.35 121.046 192.69 117.936 198.57 114.386L197.14 111.196L203.78 106.896L205.18 100.656C205.48 99.3064 205.37 96.4464 205.76 95.1764C206.15 93.9064 209.16 93.2264 210.62 92.6964L219.5 89.5164L210.84 97.8964L224.99 98.4564C225.93 97.7664 227.82 96.2664 228.64 95.7564C229.62 95.1464 231.59 96.5864 233.47 97.8564C235.58 95.9264 237.33 94.1064 239.63 90.0364C234.31 89.6364 227.8 96.0864 222.67 91.5864C224.72 88.1764 227.4 85.8964 230.44 83.2664C222.07 84.2664 219.2 91.2064 211.52 88.1764L201.21 92.2564L193.13 91.4764C207.93 81.2264 204.06 93.7864 218.67 81.9564C220.73 80.2864 226.81 80.8264 225.86 75.5064C218.5 80.0364 211.69 83.3764 203.77 84.7864L197.11 85.9764C201.93 78.8165 208.65 76.2364 217.18 74.7164L213.64 72.9064L232.13 63.0264L244.4 56.4864C259.64 48.3564 291.3 35.6264 308.95 32.3464L299.93 37.7764C312.99 34.6964 306.62 33.9364 315.73 30.6964C325.11 27.3564 333.94 24.6864 343.45 21.9664C345.65 21.3364 348.25 19.9964 350.79 19.6664C353.92 19.2564 356.86 16.7164 359.53 15.9864L382.82 9.63645C401.3 4.59645 419.64 1.40645 438.94 0.926446L445.94 2.88645L456.53 1.33645C462.79 0.416446 468.64 -0.463554 475.12 0.276446C467.63 2.54645 459.93 3.72645 452.76 7.02645L447.76 9.32645C445.76 9.72645 445.68 10.0264 447.61 10.1564C450.55 9.92645 453.31 10.1464 454.52 13.0364L446.95 13.1764L453.07 17.5864L445.86 21.0464C445.15 21.3864 442.95 21.9764 443.17 22.6564L444.56 26.8064C443.69 27.4464 440.94 29.7564 439.18 30.3064L410.1 39.4664C403.36 41.5864 398.33 47.0064 390.63 47.7364C387.41 48.0464 385.54 51.2064 383.65 53.6464C377.04 62.1864 378.64 64.9964 372.09 64.5864C361.94 63.9564 359.57 68.9464 341.42 57.5864C339.35 55.0064 345.02 50.6864 347.69 52.1564L347.75 48.9864C344.16 51.1464 340.88 52.5064 336.42 52.4564L337.73 48.6664L334.23 49.1664C333.36 49.2864 332.42 46.3464 331.64 45.9464C314.18 37.0364 292.16 59.8864 274.71 53.7464L297.93 42.8564L290.18 42.5464L269.31 54.4364C266.58 55.9864 264.77 59.8864 260.85 60.9664C259.21 61.4164 258 63.7864 257.11 65.3664C255.08 68.9764 249.17 68.9664 245.65 70.7464L222.91 82.2664C224.37 84.3964 256.62 64.0964 253.61 70.8064C253.45 71.1664 252.44 72.2364 251.89 72.4964L232.76 81.3564C235.32 82.1064 238.14 81.1864 240.78 79.7964C266.6 66.2564 256.36 72.8664 280.72 67.7964L293.29 65.1864C293.89 65.0564 296.15 65.1864 296.3 65.7364L296.91 68.0664L315.75 65.5264C311.19 75.9164 298.99 71.1364 299.11 72.5664C299.54 77.8064 305.09 71.2664 308.13 75.8764C309.93 78.6064 302.54 78.5864 302.48 79.3064L302.3 81.5464C297.68 82.4664 292.05 84.6864 287.07 84.6264C271.49 84.4464 268.87 91.0064 266.49 90.0064L265.27 89.4964C264.79 89.2964 266.21 87.6064 266.67 87.3664C274.53 83.3064 272.71 88.0264 280.59 76.5564C270.43 77.8964 273.65 81.8564 265.91 83.0964L268.66 78.5664L261.08 78.7764C257.7 81.1664 254.06 82.9764 250.52 84.2664L252.46 89.9064L244.33 96.8064C249.17 95.9664 252.78 95.4164 257.07 95.5664L248.16 99.1264C245.53 102.046 242.16 103.956 238.49 103.916L238.64 99.4864C234.91 105.896 213.82 118.776 216.92 125.206L225.63 124.836L238.19 121.156C244.14 119.416 250.42 118.186 256.06 116.036L261.44 118.986C262.44 119.536 265.16 120.346 266.28 120.106C267.59 119.826 269.23 117.806 269.85 116.596L266.22 112.586C269.36 110.366 271.81 108.636 274.46 104.516C272.4 103.666 269.42 102.886 267.74 102.486C268.4 100.816 268.08 98.3364 266.96 95.3664C266.34 93.7264 270.87 92.4864 272.73 91.6764C278.57 89.1164 283.66 87.9165 289.99 87.5464L292.5 87.3964C293.15 87.3564 293.98 89.1664 294.59 89.4264C299.63 91.5264 306.25 88.7864 308.21 82.6764C314.05 82.4964 318.98 85.7864 324.38 87.5064C329.34 89.0864 335.88 85.9964 340.57 89.0064L341.42 96.2464C346.62 94.2064 350.6 95.1964 352.24 99.7064L332.27 103.566L336.99 93.7764L327.42 99.4964C325.23 100.806 321.4 101.666 319.07 102.356C324.89 108.166 312.66 98.5664 304.02 111.016C308.03 108.926 311.2 107.356 315.31 105.966L315.38 110.976L325.22 109.916C326.85 109.736 327.74 104.116 330.66 108.506L315.64 118.266C315.27 118.506 313.96 119.156 313.64 119.306C313.22 119.506 312.68 118.516 312.79 118.066L313.32 115.986L300.77 124.146C299.83 124.756 299.82 126.856 300.55 128.626C289.96 137.456 293.83 130.756 286.57 144.546L287.88 147.376C288.64 149.016 276.27 158.986 274.27 163.206C273.14 166.436 284.95 172.486 280.33 174.976C276.26 177.176 273.27 173.956 270.93 170.716C269.86 169.226 266.2 171.286 264.41 171.376C258.61 171.676 254.25 176.826 249.88 179.546C243.13 183.736 234.17 184.966 231.38 194.296L232.97 203.666C233.37 206.006 237.68 208.396 239.93 208.786C243.01 209.316 246.98 207.366 249.66 205.666C260.09 199.056 248.24 197.256 264.46 191.406L263.35 204.306C269.32 203.816 269.93 199.106 278.52 199.706L279.63 208.446C283.4 212.266 288.82 209.846 291.76 206.866C293.31 205.856 297.61 205.746 299.71 205.366C301.31 205.076 302.13 200.276 303.49 199.156L312.46 191.806L314.13 194.026C319.21 187.576 324.02 193.526 332.07 188.806C341.43 183.326 334.35 188.376 342.58 185.236C342.98 185.086 343.95 186.946 344.36 187.066L356.75 190.606C378.02 183.436 375.38 197.466 382.04 197.366C387.82 197.276 391.81 197.366 397.08 198.146C400.28 198.616 405.63 196.716 408.67 197.406L420.87 200.166C424.2 200.916 424.21 205.726 422.25 208.526L422.18 208.546ZM913.08 373.836C915.51 379.856 915.05 388.406 907.54 390.496C904.3 391.396 899.76 392.996 896.73 394.936C892.38 394.626 887.43 392.136 883.94 388.866C880.52 385.666 874.77 382.566 873.8 377.766C873 373.786 872.23 370.576 869.58 368.026C869.93 367.576 871.15 366.376 870.83 366.276C870.35 366.126 869.13 365.736 868.63 365.646L865.85 365.176C863.8 364.836 867.43 354.866 849.03 346.876C844.94 345.096 841.05 344.166 836.69 342.896C833.37 341.926 829.77 338.656 825.96 338.156C822.22 337.666 817.57 334.996 817.45 331.586C818.44 330.076 820.03 327.086 819.8 325.426L818.32 314.586L821.44 306.256C835.16 305.336 839.53 315.306 847.83 309.046C855.7 311.276 859.62 304.206 864.89 315.136L872.49 314.136C874.51 314.846 875.95 315.186 877.39 314.896L887.49 324.026L882.18 327.036L891.27 340.696C898.19 341.786 896.04 333.196 902.69 331.936C903.07 337.626 903.46 340.546 905.33 344.536L905.78 355.176C911.24 364.036 908.61 362.776 913.08 373.826V373.836ZM918.14 335.256L921.97 345.976C914.24 342.386 914.42 330.706 910.19 330.406C897.78 329.506 903.26 323.966 893.57 318.816L896.13 316.906C896.78 316.426 896.38 313.686 895.83 313.056L884.75 300.316C884.21 298.376 883.41 295.276 882.05 292.326C887.32 292.526 891.19 297.206 890.08 303.776L898.86 305.246L911.52 319.586C914.2 322.626 915.72 326.826 917.84 330.346L919.36 332.876C919.67 333.386 918.64 334.456 918.15 335.266L918.14 335.256ZM850.93 265.836L841.26 271.936C839.75 272.886 836.99 270.036 835.3 268.696C832.56 266.536 828.83 264.036 826.45 261.646C825.44 256.276 823.82 254.986 825.92 251.356C826.28 250.736 828.02 252.176 828.77 252.306C835.99 253.496 843.18 253.306 851.07 252.756L855.45 259.026L850.6 261.006C849.57 261.426 850.97 265.066 850.92 265.836H850.93ZM657.8 226.646L648.12 242.976C646.38 245.916 639.76 244.156 638.84 241.846C637.55 238.616 637.25 234.826 640.74 232.576L641.4 224.306C647.54 223.426 651.86 222.136 656.48 217.866C659 219.806 659.48 223.836 657.81 226.646H657.8ZM958.94 236.116C953.65 235.206 950.65 233.086 945.41 228.976L945.7 235.636L937.82 240.746L927.87 236.076L919.89 232.336C916.96 230.966 914.42 229.656 912.82 227.226C911.82 228.146 909.53 229.956 908.22 229.906C906.59 229.846 905.6 225.786 906.08 223.576C913.08 222.986 919.26 226.256 925.01 230.236C929.72 228.846 936.04 235.556 939.3 232.046C940.47 230.786 942.1 227.686 942.91 226.396C945.42 226.396 948.46 226.046 950.61 225.356L958.93 236.106L958.94 236.116ZM496.69 52.6964C498.06 49.4764 504.17 47.8664 506.85 48.3164C507.81 49.3764 508.38 49.8864 510.11 51.2664L510.54 54.4264L519.91 60.4264C520.43 60.7664 522.35 61.2964 522.87 61.3164C523.58 61.3464 521.28 64.9964 520.45 65.0864L502.14 67.2364L503.35 65.1764C503.56 64.8064 503.08 64.4064 502.31 63.2964L507.21 58.4264C503.55 57.1264 498.33 56.5264 496.69 52.6864V52.6964ZM552.89 2.29645C558.1 1.85645 562.51 2.38645 567.22 2.38645C580.58 2.40645 593.65 1.43645 607.19 5.56645C600.78 6.25645 594.94 5.61645 587.09 5.16645L596.96 9.29645C591.7 11.2564 588.24 8.16645 583.53 6.31645C569.23 9.75645 575.88 12.4864 560.35 5.67645C557.64 4.48645 555.02 6.38645 552.89 2.28645V2.29645ZM704.92 44.2064C698.39 43.1164 693.22 41.0364 687.96 37.5564C703.19 32.5164 713.3 33.8364 728.05 37.9464C734.12 39.6364 740.21 39.5964 746.35 42.5164C739.57 42.9764 733.4 40.3864 726.65 39.2964C717.99 37.8964 709.67 37.5564 701.04 39.8164L704.92 44.2064ZM129.7 137.476L120.52 142.576C124.61 137.406 132.24 130.996 137.33 127.476C137.9 127.086 139.53 128.406 140.04 128.266C140.69 128.096 141.8 126.876 142.45 126.576L157.38 119.556C160.52 111.736 159.85 116.856 169.23 111.666C169.54 111.496 170.94 111.026 171.26 110.946C171.58 110.866 171.63 111.626 171.44 111.896C171.24 112.186 170.45 113.106 170.1 113.346L149.61 127.516C146.14 129.916 141.5 130.386 138.12 133.576C137.57 133.476 137.29 133.466 137.2 133.156L136.65 131.156C135.12 133.946 132.75 135.776 129.69 137.486L129.7 137.476ZM472.21 37.0264C463.57 39.8864 454.23 44.3864 444.83 41.2464L438.35 39.0864C440.4 36.0164 444.28 37.8164 447.35 37.3064L459.57 35.2764C464.05 34.5364 468.55 32.6764 472.21 37.0264ZM856.95 270.466L868.26 277.316C867.63 277.896 865.06 277.716 863.98 276.966L855.95 271.396C855.55 271.116 853.8 272.146 853.98 272.606C855.83 277.356 858.36 274.266 862.67 279.016L857.47 278.256L858.69 287.036C854.53 285.256 854.81 281.586 853.58 278.206L849.88 283.076C849.08 280.176 848.68 276.216 849.77 274.436C851.06 272.326 855.13 269.356 856.95 270.456V270.466ZM847.5 79.0664C840.01 75.7264 829.87 70.0864 822.44 64.9664C836.96 63.8264 841.83 73.6564 846.3 75.8864L848.59 77.0264C849.07 77.2664 848.23 79.3864 847.51 79.0664H847.5ZM485.62 65.4564V59.9264C490.23 57.2864 494.77 54.7764 499.74 57.6964C496.55 64.9164 496.56 63.5464 485.62 65.4564ZM202.95 101.586C200.28 105.366 196.71 107.616 192.27 108.836L184.35 110.996L188.96 105.736C190.78 103.656 198.52 97.6764 202.95 101.586ZM873.69 253.836C872.48 251.256 870.69 248.486 868.71 247.586C867.7 248.206 866.48 249.256 866.36 248.736L865.69 245.916C864.69 241.706 865.69 237.416 870.09 236.356C872.02 235.886 874.64 240.966 873.09 241.926L870.08 243.796C866.84 245.806 878.87 250.836 873.69 253.846V253.836ZM293.29 178.286H300.05C293.35 184.746 290.7 179.956 280.39 181.976L270.5 186.596C275.96 179.796 284.78 178.256 293.29 178.276V178.286ZM962.32 157.776C962.42 153.586 987.3 175.366 985.69 174.896C981.5 173.846 963.65 161.286 962.32 157.776ZM174.88 106.936C183.98 103.036 187.45 97.0564 197.23 95.4864C201.8 98.5664 174.75 108.446 174.88 106.936ZM876.15 262.466C877.55 262.866 878.1 266.716 877.2 267.466C876.29 268.226 874.36 268.606 872.86 268.746C869.68 269.056 872.14 264.836 865.8 259.486L876.15 262.466ZM699.51 20.0464L713.48 21.2964C713.93 21.8564 715.69 24.0164 716.4 24.2164L725.13 26.7164C719.14 27.0864 704.53 23.7264 699.51 20.0464ZM888.31 398.096C888.89 398.566 889.18 400.746 888.63 401.046C887.89 401.446 885.75 402.076 884.74 401.796C881.97 401.036 879.69 395.496 881.76 392.796L888.31 398.096ZM317.88 175.496C312.88 178.316 308.48 180.306 303.39 181.896C305.02 175.306 312.33 173.506 317.88 175.496ZM170.98 102.616C171.91 101.296 188.91 92.5664 190.29 95.2564C190.48 95.3364 169.22 106.526 170.98 102.616ZM751.65 196.846L755.59 204.816C752.99 205.416 751.97 205.656 750.89 205.776C749.92 205.886 748.52 202.956 748.71 201.926C749.05 200.136 750.16 198.266 751.65 196.846ZM876.33 259.226C874.44 259.256 871.18 258.816 868.35 258.386L868.29 251.186L873.63 257.776L875.25 255.486C875.64 254.936 876.85 255.546 877.54 255.866C878.14 256.136 876.98 259.206 876.32 259.216L876.33 259.226ZM848.72 81.4864C855.72 80.0864 860.54 84.3764 864.59 88.8764C858.51 86.4664 853.76 84.2064 848.72 81.4864ZM147.96 120.846C148.75 117.136 151.6 115.266 154.63 113.676L156.32 112.796C160.38 110.676 153.74 120.156 147.96 120.846ZM548.14 90.2264C547.9 90.7365 545.72 92.0664 545.41 91.6664C545.11 91.2764 544.15 89.9464 544.3 89.4164L546.17 83.0464C548.18 84.4364 548.94 88.5364 548.14 90.2264Z" stroke="url(#paint0_linear_1_182)" stroke-width="2" stroke-linejoin="bevel" mask="url(#path-2-inside-1_1_182)"/>
<path d="M587.083 66.5695C586.797 66.8457 586.415 67 586.018 67C585.621 67 585.239 66.8457 584.953 66.5695C581.407 60.2 578.832 57.7839 580.542 53.6582C581.466 51.4274 583.685 50 586.018 50C588.351 50 590.57 51.4274 591.494 53.6582C593.202 57.7787 590.298 61.22 587.083 66.5695Z" fill="#C6EBCD"/>
<path d="M599.083 229.57C598.797 229.846 598.415 230 598.018 230C597.621 230 597.239 229.846 596.953 229.57C593.407 223.2 590.832 220.784 592.542 216.658C593.466 214.427 595.685 213 598.018 213C600.351 213 602.57 214.427 603.494 216.658C605.202 220.779 602.298 224.22 599.083 229.57Z" fill="#C6EBCD"/>
<path d="M517.083 157.57C516.797 157.846 516.415 158 516.018 158C515.621 158 515.239 157.846 514.953 157.57C511.407 151.2 508.832 148.784 510.542 144.658C511.466 142.427 513.685 141 516.018 141C518.351 141 520.57 142.427 521.494 144.658C523.202 148.779 520.298 152.22 517.083 157.57Z" fill="#C6EBCD"/>
<path d="M547.492 165.57C547.231 165.846 546.881 166 546.516 166C546.152 166 545.802 165.846 545.54 165.57C542.289 159.2 539.929 156.784 541.496 152.658C542.344 150.427 544.377 149 546.516 149C548.655 149 550.689 150.427 551.536 152.658C553.101 156.779 550.44 160.22 547.492 165.57Z" fill="#C6EBCD"/>
<path d="M554.492 177.57C554.231 177.846 553.881 178 553.516 178C553.152 178 552.802 177.846 552.54 177.57C549.289 171.2 546.929 168.784 548.496 164.658C549.344 162.427 551.377 161 553.516 161C555.655 161 557.689 162.427 558.536 164.658C560.101 168.779 557.44 172.22 554.492 177.57Z" fill="#C6EBCD"/>
<path d="M562.492 167.57C562.231 167.846 561.881 168 561.516 168C561.152 168 560.802 167.846 560.54 167.57C557.289 161.2 554.929 158.784 556.496 154.658C557.344 152.427 559.377 151 561.516 151C563.655 151 565.689 152.427 566.536 154.658C568.101 158.779 565.44 162.22 562.492 167.57Z" fill="#C6EBCD"/>
<path d="M530.492 158.57C530.231 158.846 529.881 159 529.516 159C529.152 159 528.802 158.846 528.54 158.57C525.289 152.2 522.929 149.784 524.496 145.658C525.344 143.427 527.377 142 529.516 142C531.655 142 533.689 143.427 534.536 145.658C536.101 149.779 533.44 153.22 530.492 158.57Z" fill="#C6EBCD"/>
<path d="M481.083 144.57C480.797 144.846 480.415 145 480.018 145C479.621 145 479.239 144.846 478.953 144.57C475.407 138.2 472.832 135.784 474.542 131.658C475.466 129.427 477.685 128 480.018 128C482.351 128 484.57 129.427 485.494 131.658C487.202 135.779 484.298 139.22 481.083 144.57Z" fill="#C6EBCD"/>
<path d="M502.083 136.57C501.797 136.846 501.415 137 501.018 137C500.621 137 500.239 136.846 499.953 136.57C496.407 130.2 493.832 127.784 495.542 123.658C496.466 121.427 498.685 120 501.018 120C503.351 120 505.57 121.427 506.494 123.658C508.202 127.779 505.298 131.22 502.083 136.57Z" fill="#C6EBCD"/>
<path d="M505.083 107.57C504.797 107.846 504.415 108 504.018 108C503.621 108 503.239 107.846 502.953 107.57C499.407 101.2 496.832 98.7839 498.542 94.6582C499.466 92.4274 501.685 91 504.018 91C506.351 91 508.57 92.4274 509.494 94.6582C511.202 98.7787 508.298 102.22 505.083 107.57Z" fill="#C6EBCD"/>
<path d="M546.083 102.57C545.797 102.846 545.415 103 545.018 103C544.621 103 544.239 102.846 543.953 102.57C540.407 96.2 537.832 93.7839 539.542 89.6582C540.466 87.4274 542.685 86 545.018 86C547.351 86 549.57 87.4274 550.494 89.6582C552.202 93.7787 549.298 97.22 546.083 102.57Z" fill="#C6EBCD"/>
<path d="M851.083 180.57C850.797 180.846 850.415 181 850.018 181C849.621 181 849.239 180.846 848.953 180.57C845.407 174.2 842.832 171.784 844.542 167.658C845.466 165.427 847.685 164 850.018 164C852.351 164 854.57 165.427 855.494 167.658C857.202 171.779 854.298 175.22 851.083 180.57Z" fill="#C6EBCD"/>
<path d="M938.083 229.57C937.797 229.846 937.415 230 937.018 230C936.621 230 936.239 229.846 935.953 229.57C932.407 223.2 929.832 220.784 931.542 216.658C932.466 214.427 934.685 213 937.018 213C939.351 213 941.57 214.427 942.494 216.658C944.202 220.779 941.298 224.22 938.083 229.57Z" fill="#C6EBCD"/>
<path d="M758.083 167.57C757.797 167.846 757.415 168 757.018 168C756.621 168 756.239 167.846 755.953 167.57C752.407 161.2 749.832 158.784 751.542 154.658C752.466 152.427 754.685 151 757.018 151C759.351 151 761.57 152.427 762.494 154.658C764.202 158.779 761.298 162.22 758.083 167.57Z" fill="#C6EBCD"/>
<path d="M814.083 189.57C813.797 189.846 813.415 190 813.018 190C812.621 190 812.239 189.846 811.953 189.57C808.407 183.2 805.832 180.784 807.542 176.658C808.466 174.427 810.685 173 813.018 173C815.351 173 817.57 174.427 818.494 176.658C820.202 180.779 817.298 184.22 814.083 189.57Z" fill="#C6EBCD"/>
<path d="M569.083 47.5695C568.797 47.8457 568.415 48 568.018 48C567.621 48 567.239 47.8457 566.953 47.5695C563.407 41.2 560.832 38.7839 562.542 34.6582C563.466 32.4274 565.685 31 568.018 31C570.351 31 572.57 32.4274 573.494 34.6582C575.202 38.7787 572.298 42.22 569.083 47.5695Z" fill="#C6EBCD"/>
<path d="M559.083 71.5695C558.797 71.8457 558.415 72 558.018 72C557.621 72 557.239 71.8457 556.953 71.5695C553.407 65.2 550.832 62.7839 552.542 58.6582C553.466 56.4274 555.685 55 558.018 55C560.351 55 562.57 56.4274 563.494 58.6582C565.202 62.7787 562.298 66.22 559.083 71.5695Z" fill="#C6EBCD"/>
<path d="M385.083 212.57C384.797 212.846 384.415 213 384.018 213C383.621 213 383.239 212.846 382.953 212.57C379.407 206.2 376.832 203.784 378.542 199.658C379.466 197.427 381.685 196 384.018 196C386.351 196 388.57 197.427 389.494 199.658C391.202 203.779 388.298 207.22 385.083 212.57Z" fill="#C6EBCD"/>
<path d="M180.083 135.57C179.797 135.846 179.415 136 179.018 136C178.621 136 178.239 135.846 177.953 135.57C174.407 129.2 171.832 126.784 173.542 122.658C174.466 120.427 176.685 119 179.018 119C181.351 119 183.57 120.427 184.494 122.658C186.202 126.779 183.298 130.22 180.083 135.57Z" fill="#C6EBCD"/>
<path d="M229.083 158.57C228.797 158.846 228.415 159 228.018 159C227.621 159 227.239 158.846 226.953 158.57C223.407 152.2 220.832 149.784 222.542 145.658C223.466 143.427 225.685 142 228.018 142C230.351 142 232.57 143.427 233.494 145.658C235.202 149.779 232.298 153.22 229.083 158.57Z" fill="#C6EBCD"/>
<path d="M542.083 66.5695C541.797 66.8457 541.415 67 541.018 67C540.621 67 540.239 66.8457 539.953 66.5695C536.407 60.2 533.832 57.7839 535.542 53.6582C536.466 51.4274 538.685 50 541.018 50C543.351 50 545.57 51.4274 546.494 53.6582C548.202 57.7787 545.298 61.22 542.083 66.5695Z" fill="#C6EBCD"/>
<path d="M527.083 71.5695C526.797 71.8457 526.415 72 526.018 72C525.621 72 525.239 71.8457 524.953 71.5695C521.407 65.2 518.832 62.7839 520.542 58.6582C521.466 56.4274 523.685 55 526.018 55C528.351 55 530.57 56.4274 531.494 58.6582C533.202 62.7787 530.298 66.22 527.083 71.5695Z" fill="#C6EBCD"/>
</g>
<defs>
<linearGradient id="paint0_linear_1_182" x1="540.61" y1="85" x2="540.61" y2="402" gradientUnits="userSpaceOnUse">
<stop stop-color="#CDC3C3"/>
<stop offset="1" stop-color="#CDC3C3" stop-opacity="0"/>
</linearGradient>
</defs>
</svg>
