<svg width="598" height="314" viewBox="0 0 598 314" fill="none" xmlns="http://www.w3.org/2000/svg">
<g clip-path="url(#clip0_27_9977)">
<rect width="598" height="313.95" rx="20.1686" fill="#001B1E"/>
<path opacity="0.5" d="M872.831 0V234C715.7 134.974 531.666 75.513 333.84 69.1826L872.831 1147.16H636.344L342.431 241.008C328.866 236.26 314.397 233.548 299.25 233.548C284.102 233.548 269.632 236.26 256.067 241.008L-37.8462 1147.16H-274.333L264.658 69.1826C66.832 75.5131 -117.202 135.2 -274.333 234V0H872.831Z" fill="url(#paint0_linear_27_9977)"/>
<path d="M256.889 134.495L256.747 134.192L256.414 134.239C253.618 134.665 248.816 134.571 245.782 134.239L245.459 134.201L245.325 134.495C239.382 147.554 231.47 164.746 223.034 181.928L222.72 182.573H231.013L236.139 171.096C245.107 170.973 257.384 170.973 266.238 171.096L266.475 171.655C267.807 174.849 269.186 178.147 271.012 182.308L271.126 182.573H279.675L279.361 181.928C272.172 167.267 264.811 151.753 256.889 134.485V134.495ZM264.012 165.893C256.328 166.007 246.248 166.007 238.45 165.893C243.053 155.582 247.18 146.408 250.927 139.006C258.478 153.629 261.825 160.87 264.022 165.893H264.012Z" fill="#C6EBCD"/>
<path d="M285.45 131.785H284.984L285.003 132.249C285.573 146.067 285.412 168.897 284.936 182.118L284.917 182.583H292.268L292.249 182.118C291.736 166.708 291.66 144.257 292.497 131.169L292.544 130.496L291.907 130.714C289.862 131.424 287.694 131.785 285.45 131.785Z" fill="#C6EBCD"/>
<path d="M320.481 177.616C314.889 177.398 312.103 174.015 312.207 167.561L312.226 166.376C312.284 161.751 312.341 156.975 312.445 152.075C318.665 152.075 324.922 152.217 330.581 152.464L331.085 152.483L331.046 151.98C330.923 150.388 330.923 149.317 331.046 147.725L331.085 147.223L330.581 147.242C324.96 147.488 318.703 147.621 312.464 147.63L312.654 134.751L312.017 135.025C310.21 135.822 308.27 136.077 305.731 136.343L305.303 136.39L305.332 136.817C305.503 139.546 305.627 143.242 305.693 147.554C302.641 147.488 299.559 147.355 296.906 147.242L296.383 147.223L296.44 147.734C296.564 148.862 296.564 150.833 296.44 151.961L296.383 152.473L296.906 152.454C299.455 152.34 302.603 152.208 305.769 152.141C305.883 160.036 305.883 167.608 305.883 170.129C305.883 180.734 313.044 183.094 319.045 183.208C319.178 183.208 319.302 183.208 319.435 183.208C322.982 183.208 327.062 182.45 330.695 181.113L331.037 180.99L330.98 180.63C330.761 179.237 330.78 177.654 331.046 175.929L331.17 175.143L330.438 175.446C326.843 176.943 323.305 177.711 320.5 177.607L320.481 177.616Z" fill="#C6EBCD"/>
<path d="M344.59 147.166L344.048 147.261C341.708 147.659 339.911 147.555 337.762 147.261L337.239 147.185L337.258 147.716C337.685 159.316 337.685 170.565 337.258 182.109L337.239 182.573H344.59L344.571 182.109C344.133 170.376 344.133 159.449 344.571 147.716L344.59 147.166Z" fill="#C6EBCD"/>
<path d="M340.785 133.907C337.542 133.907 335.887 135.167 335.887 137.641C335.887 140.115 337.532 141.309 340.785 141.309C344.37 141.309 346.11 140.105 346.11 137.641C346.11 135.177 344.322 133.907 340.785 133.907Z" fill="#C6EBCD"/>
<path d="M383.658 147.261L383.315 147.213L383.182 147.526C381.432 151.582 379.73 155.677 377.933 160.008C375.527 165.798 373.054 171.788 370.372 177.815C367.881 172.281 365.456 166.433 363.107 160.775C361.186 156.141 359.369 151.762 357.505 147.526L357.363 147.204L357.011 147.27C355.128 147.621 352.912 147.621 350.23 147.27L349.394 147.156L349.774 147.905C355.08 158.453 360.159 169.39 365.76 182.308L365.874 182.573H374.671L374.785 182.308C376.202 179.171 377.467 176.346 378.636 173.721C382.849 164.282 385.902 157.468 390.771 147.905L391.17 147.128L390.305 147.261C388.089 147.611 385.978 147.611 383.648 147.261H383.658Z" fill="#C6EBCD"/>
<path d="M431.225 162.33C431.101 151.175 425.557 146.418 412.681 146.418C405.986 146.418 399.804 147.934 394.308 150.919L394.032 151.071L394.08 151.384C394.317 152.824 394.317 155.468 394.08 157.042L393.889 158.293L394.831 157.43C398.616 153.961 405.101 151.81 411.758 151.81C422 151.81 424.245 155.753 424.568 163.041H411.882C396.457 163.041 393.214 168.784 393.214 173.608C393.214 179.777 398.159 183.464 406.442 183.464C414.725 183.464 420.488 180.64 424.872 174.849C425.139 177.446 425.671 179.939 426.461 182.26L426.565 182.564H433.602L433.422 181.986C431.425 175.532 431.282 170.31 431.215 162.32L431.225 162.33ZM424.635 172.215C421.791 174.982 416.865 178.204 409.4 178.204C406.081 178.204 400.518 177.446 400.518 172.395C400.518 167.959 405.206 166.073 416.19 166.073H424.578V166.272C424.578 166.708 424.578 167.154 424.578 167.618C424.568 169.002 424.559 170.566 424.635 172.215Z" fill="#C6EBCD"/>
<path d="M448.002 130.486L447.365 130.704C445.32 131.415 443.152 131.775 440.907 131.775H440.441L440.46 132.239C441.031 146.057 440.869 168.888 440.394 182.108L440.375 182.573H447.726L447.707 182.108C447.193 166.698 447.117 144.247 447.954 131.159L448.002 130.486Z" fill="#C6EBCD"/>
<path d="M198.252 134.305H149.999V144.114C156.608 139.972 164.349 137.47 172.671 137.205L149.999 182.392H159.946L172.309 144.407C172.88 144.208 173.488 144.095 174.126 144.095C174.763 144.095 175.371 144.208 175.942 144.407L188.305 182.392H198.252L175.581 137.205C183.902 137.47 191.643 139.963 198.252 144.114V134.305Z" fill="#C6EBCD"/>
<path d="M446.761 244.718V243.693H447.786V244.718H446.761Z" fill="#C6EBCD"/>
<path d="M442.173 244.875C441.64 244.875 441.158 244.785 440.729 244.603C440.304 244.422 439.951 244.164 439.672 243.829C439.397 243.49 439.217 243.091 439.133 242.631L440.096 242.479C440.218 242.953 440.471 243.325 440.855 243.593C441.242 243.858 441.697 243.991 442.22 243.991C442.559 243.991 442.864 243.939 443.136 243.834C443.412 243.726 443.63 243.572 443.79 243.374C443.951 243.175 444.031 242.939 444.031 242.667C444.031 242.5 444.001 242.357 443.942 242.238C443.886 242.116 443.808 242.013 443.707 241.929C443.609 241.842 443.497 241.769 443.372 241.71C443.246 241.65 443.115 241.602 442.979 241.563L441.059 240.993C440.85 240.93 440.647 240.852 440.452 240.757C440.257 240.66 440.082 240.539 439.929 240.396C439.775 240.25 439.653 240.075 439.562 239.873C439.472 239.667 439.426 239.425 439.426 239.146C439.426 238.699 439.541 238.319 439.772 238.005C440.005 237.688 440.321 237.445 440.719 237.278C441.116 237.11 441.565 237.028 442.064 237.032C442.569 237.035 443.021 237.126 443.419 237.304C443.82 237.478 444.151 237.729 444.413 238.057C444.678 238.385 444.856 238.778 444.947 239.235L443.958 239.407C443.905 239.1 443.788 238.837 443.607 238.617C443.429 238.394 443.206 238.223 442.937 238.104C442.669 237.982 442.374 237.92 442.053 237.916C441.746 237.913 441.469 237.961 441.221 238.063C440.973 238.164 440.776 238.305 440.63 238.486C440.483 238.664 440.41 238.87 440.41 239.104C440.41 239.334 440.476 239.521 440.609 239.664C440.741 239.803 440.904 239.915 441.095 239.999C441.291 240.079 441.481 240.145 441.666 240.197L443.1 240.611C443.263 240.656 443.452 240.719 443.665 240.799C443.881 240.879 444.09 240.993 444.293 241.139C444.495 241.282 444.662 241.474 444.795 241.715C444.927 241.952 444.994 242.252 444.994 242.615C444.994 242.978 444.92 243.3 444.774 243.583C444.631 243.865 444.43 244.103 444.172 244.294C443.914 244.483 443.614 244.626 443.272 244.724C442.93 244.825 442.564 244.875 442.173 244.875Z" fill="#C6EBCD"/>
<path d="M432.028 244.718V237.184H435.005C435.079 237.184 435.166 237.187 435.267 237.194C435.368 237.197 435.466 237.208 435.56 237.225C435.968 237.288 436.31 237.428 436.586 237.644C436.865 237.86 437.074 238.134 437.214 238.465C437.353 238.793 437.423 239.158 437.423 239.559C437.423 240.142 437.271 240.647 436.968 241.077C436.664 241.502 436.219 241.769 435.633 241.877L435.277 241.935H432.959V244.718H432.028ZM436.512 244.718L435.026 241.652L435.947 241.37L437.58 244.718H436.512ZM432.959 241.05H434.974C435.04 241.05 435.115 241.047 435.199 241.04C435.286 241.033 435.368 241.021 435.445 241.003C435.686 240.947 435.881 240.846 436.031 240.7C436.184 240.55 436.296 240.375 436.366 240.177C436.436 239.974 436.47 239.768 436.47 239.559C436.47 239.35 436.436 239.146 436.366 238.947C436.296 238.745 436.184 238.568 436.031 238.418C435.881 238.268 435.686 238.167 435.445 238.115C435.368 238.094 435.286 238.082 435.199 238.078C435.115 238.071 435.04 238.068 434.974 238.068H432.959V241.05Z" fill="#C6EBCD"/>
<path d="M426.823 244.875C426.241 244.875 425.726 244.755 425.28 244.514C424.833 244.274 424.483 243.937 424.228 243.504C423.977 243.068 423.851 242.557 423.851 241.971V237.189L424.793 237.184V241.893C424.793 242.249 424.852 242.559 424.971 242.824C425.093 243.086 425.254 243.304 425.452 243.478C425.651 243.653 425.869 243.783 426.107 243.871C426.347 243.954 426.586 243.996 426.823 243.996C427.064 243.996 427.305 243.953 427.545 243.865C427.786 243.778 428.004 243.649 428.2 243.478C428.398 243.304 428.557 243.084 428.676 242.819C428.794 242.554 428.854 242.245 428.854 241.893V237.184H429.795V241.971C429.795 242.554 429.668 243.063 429.413 243.499C429.162 243.935 428.813 244.274 428.367 244.514C427.92 244.755 427.406 244.875 426.823 244.875Z" fill="#C6EBCD"/>
<path d="M417.064 244.718V237.184H421.826V238.068H417.996V240.428H421.198V241.312H417.996V243.834H421.826V244.718H417.064Z" fill="#C6EBCD"/>
<path d="M410.985 244.718V237.184H411.917V243.834H415.412V244.718H410.985Z" fill="#C6EBCD"/>
<path d="M402.835 244.718L405.357 237.184H406.654L409.176 244.718H408.208L405.849 237.728H406.142L403.803 244.718H402.835ZM404.049 242.955V242.081H407.963V242.955H404.049Z" fill="#C6EBCD"/>
<path d="M398.72 244.718L396.198 237.184H397.166L399.358 243.729L401.571 237.184H402.539L400.017 244.718H398.72Z" fill="#C6EBCD"/>
<path d="M389.33 244.875C388.796 244.875 388.315 244.785 387.886 244.603C387.46 244.422 387.108 244.164 386.829 243.829C386.553 243.49 386.374 243.091 386.29 242.631L387.253 242.479C387.375 242.953 387.628 243.325 388.011 243.593C388.398 243.858 388.854 243.991 389.377 243.991C389.715 243.991 390.021 243.939 390.293 243.834C390.568 243.726 390.786 243.572 390.947 243.374C391.107 243.175 391.187 242.939 391.187 242.667C391.187 242.5 391.158 242.357 391.098 242.238C391.043 242.116 390.964 242.013 390.863 241.929C390.765 241.842 390.654 241.769 390.528 241.71C390.403 241.65 390.272 241.602 390.136 241.563L388.215 240.993C388.006 240.93 387.804 240.852 387.608 240.757C387.413 240.66 387.239 240.539 387.085 240.396C386.932 240.25 386.81 240.075 386.719 239.873C386.628 239.667 386.583 239.425 386.583 239.146C386.583 238.699 386.698 238.319 386.928 238.005C387.162 237.688 387.478 237.445 387.875 237.278C388.273 237.11 388.721 237.028 389.22 237.032C389.726 237.035 390.178 237.126 390.575 237.304C390.976 237.478 391.308 237.729 391.569 238.057C391.835 238.385 392.012 238.778 392.103 239.235L391.114 239.407C391.062 239.1 390.945 238.837 390.764 238.617C390.586 238.394 390.362 238.223 390.094 238.104C389.825 237.982 389.53 237.92 389.21 237.916C388.903 237.913 388.625 237.961 388.378 238.063C388.13 238.164 387.933 238.305 387.786 238.486C387.64 238.664 387.567 238.87 387.567 239.104C387.567 239.334 387.633 239.521 387.765 239.664C387.898 239.803 388.06 239.915 388.252 239.999C388.447 240.079 388.637 240.145 388.822 240.197L390.256 240.611C390.42 240.656 390.608 240.719 390.821 240.799C391.037 240.879 391.247 240.993 391.449 241.139C391.651 241.282 391.819 241.474 391.951 241.715C392.084 241.952 392.15 242.252 392.15 242.615C392.15 242.978 392.077 243.3 391.93 243.583C391.787 243.865 391.587 244.103 391.329 244.294C391.071 244.483 390.771 244.626 390.429 244.724C390.087 244.825 389.721 244.875 389.33 244.875Z" fill="#C6EBCD"/>
<path d="M381.321 244.875C380.571 244.875 379.935 244.71 379.412 244.378C378.888 244.047 378.489 243.586 378.213 242.997C377.941 242.407 377.805 241.725 377.805 240.951C377.805 240.177 377.941 239.495 378.213 238.905C378.489 238.315 378.888 237.855 379.412 237.524C379.935 237.192 380.571 237.027 381.321 237.027C382.075 237.027 382.713 237.192 383.237 237.524C383.76 237.855 384.157 238.315 384.43 238.905C384.702 239.495 384.838 240.177 384.838 240.951C384.838 241.725 384.702 242.407 384.43 242.997C384.157 243.586 383.76 244.047 383.237 244.378C382.713 244.71 382.075 244.875 381.321 244.875ZM381.321 243.986C381.883 243.989 382.35 243.864 382.724 243.609C383.1 243.351 383.381 242.993 383.566 242.536C383.755 242.079 383.849 241.551 383.849 240.951C383.849 240.347 383.755 239.819 383.566 239.365C383.381 238.912 383.1 238.558 382.724 238.303C382.35 238.049 381.883 237.92 381.321 237.916C380.76 237.913 380.292 238.038 379.919 238.293C379.549 238.547 379.27 238.903 379.082 239.36C378.894 239.817 378.798 240.347 378.794 240.951C378.791 241.551 378.883 242.078 379.071 242.531C379.26 242.985 379.541 243.34 379.914 243.599C380.291 243.853 380.76 243.982 381.321 243.986Z" fill="#C6EBCD"/>
<path d="M373.054 244.718L370.532 237.184H371.5L373.692 243.729L375.906 237.184H376.874L374.352 244.718H373.054Z" fill="#C6EBCD"/>
<path d="M360.878 244.718V237.184H363.855C363.929 237.184 364.016 237.187 364.117 237.194C364.218 237.197 364.316 237.208 364.41 237.225C364.818 237.288 365.16 237.428 365.436 237.644C365.715 237.86 365.924 238.134 366.064 238.465C366.203 238.793 366.273 239.158 366.273 239.559C366.273 240.142 366.121 240.647 365.818 241.077C365.514 241.502 365.069 241.769 364.483 241.877L364.128 241.935H361.81V244.718H360.878ZM365.362 244.718L363.876 241.652L364.797 241.37L366.43 244.718H365.362ZM361.81 241.05H363.824C363.89 241.05 363.965 241.047 364.049 241.04C364.136 241.033 364.218 241.021 364.295 241.003C364.536 240.947 364.731 240.846 364.881 240.7C365.035 240.55 365.146 240.375 365.216 240.177C365.286 239.974 365.321 239.768 365.321 239.559C365.321 239.35 365.286 239.146 365.216 238.947C365.146 238.745 365.035 238.568 364.881 238.418C364.731 238.268 364.536 238.167 364.295 238.115C364.218 238.094 364.136 238.082 364.049 238.078C363.965 238.071 363.89 238.068 363.824 238.068H361.81V241.05Z" fill="#C6EBCD"/>
<path d="M354.091 244.718V237.184H358.853V238.068H355.023V240.428H358.225V241.312H355.023V243.834H358.853V244.718H354.091Z" fill="#C6EBCD"/>
<path d="M346.047 244.718V237.184H346.989L350.919 243.07V237.184H351.861V244.718H350.919L346.989 238.827V244.718H346.047Z" fill="#C6EBCD"/>
<path d="M338.576 244.718V237.184H341.553C341.626 237.184 341.713 237.187 341.815 237.194C341.916 237.197 342.013 237.208 342.108 237.225C342.516 237.288 342.858 237.428 343.133 237.644C343.412 237.86 343.622 238.134 343.761 238.465C343.901 238.793 343.97 239.158 343.97 239.559C343.97 240.142 343.819 240.647 343.515 241.077C343.212 241.502 342.767 241.769 342.181 241.877L341.825 241.935H339.507V244.718H338.576ZM343.06 244.718L341.574 241.652L342.495 241.37L344.127 244.718H343.06ZM339.507 241.05H341.522C341.588 241.05 341.663 241.047 341.747 241.04C341.834 241.033 341.916 241.021 341.993 241.003C342.233 240.947 342.429 240.846 342.579 240.7C342.732 240.55 342.844 240.375 342.913 240.177C342.983 239.974 343.018 239.768 343.018 239.559C343.018 239.35 342.983 239.146 342.913 238.947C342.844 238.745 342.732 238.568 342.579 238.418C342.429 238.268 342.233 238.167 341.993 238.115C341.916 238.094 341.834 238.082 341.747 238.078C341.663 238.071 341.588 238.068 341.522 238.068H339.507V241.05Z" fill="#C6EBCD"/>
<path d="M330.53 244.718L333.052 237.184H334.35L336.872 244.718H335.904L333.544 237.728H333.837L331.498 244.718H330.53ZM331.744 242.955V242.081H335.658V242.955H331.744Z" fill="#C6EBCD"/>
<path d="M326.025 244.875C325.275 244.875 324.638 244.71 324.115 244.378C323.592 244.047 323.193 243.586 322.917 242.997C322.645 242.407 322.509 241.725 322.509 240.951C322.509 240.177 322.645 239.495 322.917 238.905C323.193 238.315 323.592 237.855 324.115 237.524C324.638 237.192 325.275 237.027 326.025 237.027C326.897 237.027 327.614 237.248 328.176 237.691C328.741 238.134 329.13 238.731 329.342 239.481L328.395 239.732C328.242 239.17 327.968 238.727 327.574 238.403C327.18 238.078 326.663 237.916 326.025 237.916C325.463 237.916 324.996 238.043 324.623 238.298C324.249 238.553 323.969 238.909 323.78 239.365C323.592 239.819 323.496 240.347 323.492 240.951C323.489 241.551 323.581 242.079 323.77 242.536C323.958 242.99 324.241 243.346 324.617 243.604C324.994 243.858 325.463 243.986 326.025 243.986C326.663 243.986 327.18 243.824 327.574 243.499C327.968 243.171 328.242 242.728 328.395 242.17L329.342 242.421C329.13 243.168 328.741 243.764 328.176 244.211C327.614 244.654 326.897 244.875 326.025 244.875Z" fill="#C6EBCD"/>
<path d="M314.884 244.718V237.184H315.825L319.755 243.07V237.184H320.697V244.718H319.755L315.825 238.827V244.718H314.884Z" fill="#C6EBCD"/>
<path d="M311.615 244.718V237.184H312.546V244.718H311.615Z" fill="#C6EBCD"/>
<path d="M305.227 244.718V243.693H306.253V244.718H305.227Z" fill="#C6EBCD"/>
<path d="M300.64 244.875C300.106 244.875 299.625 244.785 299.196 244.603C298.77 244.422 298.418 244.164 298.139 243.829C297.863 243.49 297.684 243.091 297.6 242.631L298.563 242.479C298.685 242.953 298.938 243.325 299.321 243.593C299.709 243.858 300.164 243.991 300.687 243.991C301.025 243.991 301.331 243.939 301.603 243.834C301.878 243.726 302.096 243.572 302.257 243.374C302.417 243.175 302.497 242.939 302.497 242.667C302.497 242.5 302.468 242.357 302.409 242.238C302.353 242.116 302.274 242.013 302.173 241.929C302.075 241.842 301.964 241.769 301.838 241.71C301.713 241.65 301.582 241.602 301.446 241.563L299.525 240.993C299.316 240.93 299.114 240.852 298.918 240.757C298.723 240.66 298.549 240.539 298.395 240.396C298.242 240.25 298.12 240.075 298.029 239.873C297.938 239.667 297.893 239.425 297.893 239.146C297.893 238.699 298.008 238.319 298.238 238.005C298.472 237.688 298.788 237.445 299.185 237.278C299.583 237.11 300.031 237.028 300.53 237.032C301.036 237.035 301.488 237.126 301.885 237.304C302.286 237.478 302.618 237.729 302.879 238.057C303.145 238.385 303.322 238.778 303.413 239.235L302.424 239.407C302.372 239.1 302.255 238.837 302.074 238.617C301.896 238.394 301.672 238.223 301.404 238.104C301.135 237.982 300.841 237.92 300.52 237.916C300.213 237.913 299.935 237.961 299.688 238.063C299.44 238.164 299.243 238.305 299.096 238.486C298.95 238.664 298.877 238.87 298.877 239.104C298.877 239.334 298.943 239.521 299.075 239.664C299.208 239.803 299.37 239.915 299.562 239.999C299.757 240.079 299.948 240.145 300.132 240.197L301.566 240.611C301.73 240.656 301.918 240.719 302.131 240.799C302.347 240.879 302.557 240.993 302.759 241.139C302.961 241.282 303.129 241.474 303.261 241.715C303.394 241.952 303.46 242.252 303.46 242.615C303.46 242.978 303.387 243.3 303.24 243.583C303.097 243.865 302.897 244.103 302.639 244.294C302.381 244.483 302.081 244.626 301.739 244.724C301.397 244.825 301.031 244.875 300.64 244.875Z" fill="#C6EBCD"/>
<path d="M291.384 244.718V237.184H296.145V238.068H292.315V240.428H295.517V241.312H292.315V243.834H296.145V244.718H291.384Z" fill="#C6EBCD"/>
<path d="M286.151 244.875C285.401 244.875 284.765 244.71 284.241 244.378C283.718 244.047 283.319 243.586 283.043 242.997C282.771 242.407 282.635 241.725 282.635 240.951C282.635 240.177 282.771 239.495 283.043 238.905C283.319 238.315 283.718 237.855 284.241 237.524C284.765 237.192 285.401 237.027 286.151 237.027C287.023 237.027 287.74 237.248 288.302 237.691C288.867 238.134 289.256 238.731 289.469 239.481L288.522 239.732C288.368 239.17 288.094 238.727 287.7 238.403C287.306 238.078 286.79 237.916 286.151 237.916C285.59 237.916 285.122 238.043 284.749 238.298C284.376 238.553 284.095 238.909 283.907 239.365C283.718 239.819 283.622 240.347 283.619 240.951C283.615 241.551 283.708 242.079 283.896 242.536C284.084 242.99 284.367 243.346 284.744 243.604C285.12 243.858 285.59 243.986 286.151 243.986C286.79 243.986 287.306 243.824 287.7 243.499C288.094 243.171 288.368 242.728 288.522 242.17L289.469 242.421C289.256 243.168 288.867 243.764 288.302 244.211C287.74 244.654 287.023 244.875 286.151 244.875Z" fill="#C6EBCD"/>
<path d="M275.01 244.718V237.184H275.952L279.881 243.07V237.184H280.823V244.718H279.881L275.952 238.827V244.718H275.01Z" fill="#C6EBCD"/>
<path d="M268.223 244.718V237.184H272.984V238.068H269.154V240.428H272.357V241.312H269.154V243.834H272.984V244.718H268.223Z" fill="#C6EBCD"/>
<path d="M263.122 244.718V238.068H260.553V237.184H266.622V238.068H264.053V244.718H263.122Z" fill="#C6EBCD"/>
<path d="M257.287 236.32H256.529L257.214 234.593H257.973L257.287 236.32ZM254.394 244.718V237.184H259.155V238.068H255.325V240.428H258.527V241.312H255.325V243.834H259.155V244.718H254.394Z" fill="#C6EBCD"/>
<path d="M247.188 244.718V237.184H250.165C250.239 237.184 250.326 237.187 250.427 237.194C250.528 237.197 250.626 237.208 250.72 237.225C251.128 237.288 251.47 237.428 251.745 237.644C252.025 237.86 252.234 238.134 252.373 238.465C252.513 238.793 252.583 239.158 252.583 239.559C252.583 239.957 252.511 240.321 252.368 240.653C252.229 240.981 252.019 241.254 251.74 241.474C251.465 241.69 251.125 241.83 250.72 241.893C250.626 241.907 250.528 241.917 250.427 241.924C250.326 241.931 250.239 241.935 250.165 241.935H248.119V244.718H247.188ZM248.119 241.05H250.134C250.2 241.05 250.275 241.047 250.359 241.04C250.446 241.033 250.528 241.021 250.605 241.003C250.846 240.947 251.041 240.846 251.191 240.7C251.344 240.55 251.456 240.375 251.526 240.177C251.595 239.974 251.63 239.768 251.63 239.559C251.63 239.35 251.595 239.146 251.526 238.947C251.456 238.745 251.344 238.568 251.191 238.418C251.041 238.268 250.846 238.167 250.605 238.115C250.528 238.094 250.446 238.082 250.359 238.078C250.275 238.071 250.2 238.068 250.134 238.068H248.119V241.05Z" fill="#C6EBCD"/>
<path d="M237.57 244.718V237.184H238.418L241.264 243.185L244.095 237.184H244.953V244.713H244.069V239.229L241.51 244.718H241.013L238.455 239.229V244.718H237.57Z" fill="#C6EBCD"/>
<path d="M232.235 244.875C231.485 244.875 230.849 244.71 230.326 244.378C229.802 244.047 229.403 243.586 229.127 242.997C228.855 242.407 228.719 241.725 228.719 240.951C228.719 240.177 228.855 239.495 229.127 238.905C229.403 238.315 229.802 237.855 230.326 237.524C230.849 237.192 231.485 237.027 232.235 237.027C232.989 237.027 233.627 237.192 234.151 237.524C234.674 237.855 235.071 238.315 235.344 238.905C235.616 239.495 235.752 240.177 235.752 240.951C235.752 241.725 235.616 242.407 235.344 242.997C235.071 243.586 234.674 244.047 234.151 244.378C233.627 244.71 232.989 244.875 232.235 244.875ZM232.235 243.986C232.797 243.989 233.265 243.864 233.638 243.609C234.015 243.351 234.295 242.993 234.48 242.536C234.669 242.079 234.763 241.551 234.763 240.951C234.763 240.347 234.669 239.819 234.48 239.365C234.295 238.912 234.015 238.558 233.638 238.303C233.265 238.049 232.797 237.92 232.235 237.916C231.674 237.913 231.206 238.038 230.833 238.293C230.463 238.547 230.184 238.903 229.996 239.36C229.808 239.817 229.712 240.347 229.708 240.951C229.705 241.551 229.797 242.078 229.986 242.531C230.174 242.985 230.455 243.34 230.828 243.599C231.205 243.853 231.674 243.982 232.235 243.986Z" fill="#C6EBCD"/>
<path d="M223.906 244.875C223.156 244.875 222.519 244.71 221.996 244.378C221.473 244.047 221.073 243.586 220.798 242.997C220.525 242.407 220.389 241.725 220.389 240.951C220.389 240.177 220.525 239.495 220.798 238.905C221.073 238.315 221.473 237.855 221.996 237.524C222.519 237.192 223.156 237.027 223.906 237.027C224.778 237.027 225.495 237.248 226.056 237.691C226.621 238.134 227.01 238.731 227.223 239.481L226.276 239.732C226.122 239.17 225.849 238.727 225.454 238.403C225.06 238.078 224.544 237.916 223.906 237.916C223.344 237.916 222.877 238.043 222.503 238.298C222.13 238.553 221.849 238.909 221.661 239.365C221.473 239.819 221.377 240.347 221.373 240.951C221.37 241.551 221.462 242.079 221.65 242.536C221.839 242.99 222.121 243.346 222.498 243.604C222.875 243.858 223.344 243.986 223.906 243.986C224.544 243.986 225.06 243.824 225.454 243.499C225.849 243.171 226.122 242.728 226.276 242.17L227.223 242.421C227.01 243.168 226.621 243.764 226.056 244.211C225.495 244.654 224.778 244.875 223.906 244.875Z" fill="#C6EBCD"/>
<path d="M213.26 244.875C212.726 244.875 212.245 244.785 211.816 244.603C211.39 244.422 211.038 244.164 210.759 243.829C210.483 243.49 210.304 243.091 210.22 242.631L211.183 242.479C211.305 242.953 211.558 243.325 211.941 243.593C212.329 243.858 212.784 243.991 213.307 243.991C213.646 243.991 213.951 243.939 214.223 243.834C214.498 243.726 214.716 243.572 214.877 243.374C215.037 243.175 215.118 242.939 215.118 242.667C215.118 242.5 215.088 242.357 215.029 242.238C214.973 242.116 214.894 242.013 214.793 241.929C214.696 241.842 214.584 241.769 214.458 241.71C214.333 241.65 214.202 241.602 214.066 241.563L212.146 240.993C211.936 240.93 211.734 240.852 211.539 240.757C211.343 240.66 211.169 240.539 211.015 240.396C210.862 240.25 210.74 240.075 210.649 239.873C210.558 239.667 210.513 239.425 210.513 239.146C210.513 238.699 210.628 238.319 210.858 238.005C211.092 237.688 211.408 237.445 211.805 237.278C212.203 237.11 212.651 237.028 213.15 237.032C213.656 237.035 214.108 237.126 214.505 237.304C214.907 237.478 215.238 237.729 215.5 238.057C215.765 238.385 215.943 238.778 216.033 239.235L215.044 239.407C214.992 239.1 214.875 238.837 214.694 238.617C214.516 238.394 214.293 238.223 214.024 238.104C213.755 237.982 213.461 237.92 213.14 237.916C212.833 237.913 212.555 237.961 212.308 238.063C212.06 238.164 211.863 238.305 211.716 238.486C211.57 238.664 211.497 238.87 211.497 239.104C211.497 239.334 211.563 239.521 211.696 239.664C211.828 239.803 211.99 239.915 212.182 239.999C212.378 240.079 212.568 240.145 212.752 240.197L214.186 240.611C214.35 240.656 214.539 240.719 214.751 240.799C214.968 240.879 215.177 240.993 215.379 241.139C215.582 241.282 215.749 241.474 215.882 241.715C216.014 241.952 216.08 242.252 216.08 242.615C216.08 242.978 216.007 243.3 215.861 243.583C215.718 243.865 215.517 244.103 215.259 244.294C215.001 244.483 214.701 244.626 214.359 244.724C214.017 244.825 213.651 244.875 213.26 244.875Z" fill="#C6EBCD"/>
<path d="M205.252 244.875C204.502 244.875 203.865 244.71 203.342 244.378C202.818 244.047 202.419 243.586 202.143 242.997C201.871 242.407 201.735 241.725 201.735 240.951C201.735 240.177 201.871 239.495 202.143 238.905C202.419 238.315 202.818 237.855 203.342 237.524C203.865 237.192 204.502 237.027 205.252 237.027C206.005 237.027 206.643 237.192 207.167 237.524C207.69 237.855 208.088 238.315 208.36 238.905C208.632 239.495 208.768 240.177 208.768 240.951C208.768 241.725 208.632 242.407 208.36 242.997C208.088 243.586 207.69 244.047 207.167 244.378C206.643 244.71 206.005 244.875 205.252 244.875ZM205.252 243.986C205.813 243.989 206.281 243.864 206.654 243.609C207.031 243.351 207.311 242.993 207.496 242.536C207.685 242.079 207.779 241.551 207.779 240.951C207.779 240.347 207.685 239.819 207.496 239.365C207.311 238.912 207.031 238.558 206.654 238.303C206.281 238.049 205.813 237.92 205.252 237.916C204.69 237.913 204.223 238.038 203.849 238.293C203.48 238.547 203.2 238.903 203.012 239.36C202.824 239.817 202.728 240.347 202.724 240.951C202.721 241.551 202.813 242.078 203.002 242.531C203.19 242.985 203.471 243.34 203.844 243.599C204.221 243.853 204.69 243.982 205.252 243.986Z" fill="#C6EBCD"/>
<path d="M196.984 244.718L194.462 237.184H195.43L197.623 243.729L199.836 237.184H200.804L198.282 244.718H196.984Z" fill="#C6EBCD"/>
<path d="M184.808 244.718V237.184H187.786C187.859 237.184 187.946 237.187 188.047 237.194C188.148 237.197 188.246 237.208 188.34 237.225C188.748 237.288 189.09 237.428 189.366 237.644C189.645 237.86 189.854 238.134 189.994 238.465C190.133 238.793 190.203 239.158 190.203 239.559C190.203 240.142 190.051 240.647 189.748 241.077C189.444 241.502 189 241.769 188.414 241.877L188.058 241.935H185.74V244.718H184.808ZM189.293 244.718L187.807 241.652L188.727 241.37L190.36 244.718H189.293ZM185.74 241.05H187.754C187.821 241.05 187.896 241.047 187.979 241.04C188.066 241.033 188.148 241.021 188.225 241.003C188.466 240.947 188.661 240.846 188.811 240.7C188.965 240.55 189.076 240.375 189.146 240.177C189.216 239.974 189.251 239.768 189.251 239.559C189.251 239.35 189.216 239.146 189.146 238.947C189.076 238.745 188.965 238.568 188.811 238.418C188.661 238.268 188.466 238.167 188.225 238.115C188.148 238.094 188.066 238.082 187.979 238.078C187.896 238.071 187.821 238.068 187.754 238.068H185.74V241.05Z" fill="#C6EBCD"/>
<path d="M178.021 244.718V237.184H182.783V238.068H178.953V240.428H182.155V241.312H178.953V243.834H182.783V244.718H178.021Z" fill="#C6EBCD"/>
<path d="M172.647 244.718L170.125 237.184H171.093L173.286 243.729L175.499 237.184H176.467L173.945 244.718H172.647Z" fill="#C6EBCD"/>
<path d="M164.019 244.718V237.184H168.78V238.068H164.95V240.428H168.152V241.312H164.95V243.834H168.78V244.718H164.019Z" fill="#C6EBCD"/>
<path d="M157.939 244.718V237.184H158.871V243.834H162.366V244.718H157.939Z" fill="#C6EBCD"/>
<path d="M153.941 236.32H153.183L153.868 234.593H154.627L153.941 236.32ZM151.048 244.718V237.184H155.809V238.068H151.979V240.428H155.182V241.312H151.979V243.834H155.809V244.718H151.048Z" fill="#C6EBCD"/>
</g>
<defs>
<linearGradient id="paint0_linear_27_9977" x1="299.249" y1="0" x2="299.249" y2="474.954" gradientUnits="userSpaceOnUse">
<stop stop-color="#276B6B" stop-opacity="0"/>
<stop offset="0.653846" stop-color="#276B6B" stop-opacity="0.653846"/>
<stop offset="1" stop-color="#276B6B"/>
</linearGradient>
<clipPath id="clip0_27_9977">
<rect width="598" height="313.95" rx="20.1686" fill="white"/>
</clipPath>
</defs>
</svg>
